<?xml version="1.0" encoding="utf-8"?>
<!-- Generator: Adobe Illustrator 28.0.0, SVG Export Plug-In . SVG Version: 6.00 Build 0)  -->
<svg version="1.1" id="レイヤー_1" xmlns="http://www.w3.org/2000/svg" xmlns:xlink="http://www.w3.org/1999/xlink" x="0px"
	 y="0px" viewBox="0 0 1200 1200" style="enable-background:new 0 0 1200 1200;" xml:space="preserve">
<style type="text/css">
	.st0{fill:#333333;}
	.st1{fill:#FFFFFF;}
</style>
<image style="display:none;overflow:visible;" width="256" height="256" xlink:href="facebook-icon.png"  transform="matrix(4.6875 0 0 4.6875 0 0)">
</image>
<path class="st0" d="M1030,1200H170c-93.9,0-170-76.1-170-170V170C0,76.1,76.1,0,170,0h860c93.9,0,170,76.1,170,170v860
	C1200,1123.9,1123.9,1200,1030,1200z"/>
<path class="st1" d="M676.1,537.4l297.8-346.2h-70.6L644.8,491.8L438.2,191.2H200l312.3,454.5l-312.3,363h70.6l273.1-317.4
	l218.1,317.4H1000L676.1,537.4L676.1,537.4z M579.4,649.8l-31.6-45.3L296,244.3h108.4L607.6,535l31.6,45.3l264.1,377.8H795
	L579.4,649.8L579.4,649.8z"/>
</svg>
