<?xml version="1.0" encoding="utf-8"?>
<!-- Generator: Adobe Illustrator 28.1.0, SVG Export Plug-In . SVG Version: 6.00 Build 0)  -->
<svg version="1.1" id="_x32_" xmlns="http://www.w3.org/2000/svg" xmlns:xlink="http://www.w3.org/1999/xlink" x="0px" y="0px"
	 viewBox="0 0 512 512" style="enable-background:new 0 0 512 512;" xml:space="preserve">
<style type="text/css">
	.st0{fill:#FFFFFF;stroke:#000000;stroke-miterlimit:10;}
	.st1{fill:#333333;}
</style>
<rect x="116" y="68" class="st0" width="276" height="384"/>
<g>
	<path class="st1" d="M438.3,0H73.7C33,0,0,33,0,73.7v364.5C0,479,33,512,73.7,512h364.5c40.7,0,73.7-33,73.7-73.7V73.7
		C512,33,479,0,438.3,0z M347.8,137.9l-33.3,0c-26.1,0-31.2,12.4-31.2,30.6v40.1h62.2l-8.1,62.9h-54.1v161.3h-64.9V271.5h-54.3
		v-62.9h54.3v-46.4c0-53.8,32.9-83.1,80.9-83.1c23,0,42.7,1.7,48.5,2.5L347.8,137.9L347.8,137.9z"/>
</g>
</svg>
