<?xml version="1.0" encoding="utf-8"?>
<!-- Generator: Adobe Illustrator 26.0.0, SVG Export Plug-In . SVG Version: 6.00 Build 0)  -->
<svg version="1.1" id="レイヤー_1" xmlns="http://www.w3.org/2000/svg" xmlns:xlink="http://www.w3.org/1999/xlink" x="0px"
	 y="0px" viewBox="0 0 1020 298.7" style="enable-background:new 0 0 1020 298.7;" xml:space="preserve">
<style type="text/css">
	.st0{clip-path:url(#SVGID_00000075876627445177692510000005350163800578666134_);}
	.st1{fill:#1E1F21;}
	.st2{filter:url(#Adobe_OpacityMaskFilter);}
	
		.st3{clip-path:url(#SVGID_00000047739566535177724300000002889042250553024165_);fill:url(#SVGID_00000109011948908583545210000006057200478208584357_);}
	
		.st4{opacity:8.000000e-02;clip-path:url(#SVGID_00000047739566535177724300000002889042250553024165_);mask:url(#SVGID_00000071544603931468133510000007761636367495373213_);fill-rule:evenodd;clip-rule:evenodd;fill:#FFFFFF;}
	.st5{filter:url(#Adobe_OpacityMaskFilter_00000075870998240368803840000005841696007405777083_);}
	
		.st6{clip-path:url(#SVGID_00000145745546891112968360000003638982575587081095_);fill:url(#SVGID_00000132059883829073659170000013429294138779486630_);}
	
		.st7{opacity:8.000000e-02;clip-path:url(#SVGID_00000145745546891112968360000003638982575587081095_);mask:url(#SVGID_00000125577076803000245100000001772489100718582941_);fill-rule:evenodd;clip-rule:evenodd;fill:#FFFFFF;}
	
		.st8{opacity:0.35;fill:url(#SVGID_00000066478595332365041660000007833070879589494194_);stroke:url(#SVGID_00000134229554987932720660000016867850122320646566_);stroke-width:0.4166;stroke-miterlimit:10;}
	
		.st9{fill:url(#SVGID_00000082330488959837468880000011359360925399450799_);stroke:url(#SVGID_00000139285374701450371970000004267731778711690131_);stroke-width:0.4013;stroke-miterlimit:10;}
	.st10{fill:#FFFFFF;}
	.st11{fill:#D6E039;}
	.st12{opacity:0.75;fill:#040000;}
	.st13{opacity:0.2;fill:#FFFFFF;}
	.st14{fill:none;stroke:#D6E039;stroke-width:1.4157;stroke-miterlimit:10;}
</style>
<g>
	<defs>
		<rect id="SVGID_1_" width="1020" height="298.7"/>
	</defs>
	<clipPath id="SVGID_00000158724482232198482840000000316182376710321560_">
		<use xlink:href="#SVGID_1_"  style="overflow:visible;"/>
	</clipPath>
	<g style="clip-path:url(#SVGID_00000158724482232198482840000000316182376710321560_);">
		<rect x="-11.6" y="-9.4" class="st1" width="1040.1" height="316.7"/>
		<g>
			<defs>
				<rect id="SVGID_00000178912014949698453520000010400671584079154607_" x="-10.6" y="-8" width="1039.8" height="115.6"/>
			</defs>
			<clipPath id="SVGID_00000118363579345642275080000010959933165729634987_">
				<use xlink:href="#SVGID_00000178912014949698453520000010400671584079154607_"  style="overflow:visible;"/>
			</clipPath>
			<defs>
				<filter id="Adobe_OpacityMaskFilter" filterUnits="userSpaceOnUse" x="-10.6" y="-8" width="1039.8" height="312.6">
					<feColorMatrix  type="matrix" values="1 0 0 0 0  0 1 0 0 0  0 0 1 0 0  0 0 0 1 0"/>
				</filter>
			</defs>
			
				<mask maskUnits="userSpaceOnUse" x="-10.6" y="-8" width="1039.8" height="312.6" id="SVGID_00000167376785835839196270000001253714079500645285_">
				<g class="st2">
					
						<radialGradient id="SVGID_00000155138240652021447070000006879580860438271132_" cx="514.5113" cy="-672.6661" r="390.5497" gradientTransform="matrix(1 0 0 0.3847 0 406.1336)" gradientUnits="userSpaceOnUse">
						<stop  offset="0.2218" style="stop-color:#000000"/>
						<stop  offset="0.3918" style="stop-color:#030303"/>
						<stop  offset="0.4973" style="stop-color:#0B0B0B"/>
						<stop  offset="0.5854" style="stop-color:#1A1A1A"/>
						<stop  offset="0.6639" style="stop-color:#2E2E2E"/>
						<stop  offset="0.7359" style="stop-color:#494949"/>
						<stop  offset="0.8033" style="stop-color:#6A6A6A"/>
						<stop  offset="0.8671" style="stop-color:#919191"/>
						<stop  offset="0.928" style="stop-color:#BEBEBE"/>
						<stop  offset="0.9846" style="stop-color:#F0F0F0"/>
						<stop  offset="1" style="stop-color:#FFFFFF"/>
					</radialGradient>
					
						<rect x="-9.3" y="-7.9" style="clip-path:url(#SVGID_00000118363579345642275080000010959933165729634987_);fill:url(#SVGID_00000155138240652021447070000006879580860438271132_);" width="1037.7" height="312.6"/>
				</g>
			</mask>
			
				<path style="opacity:8.000000e-02;clip-path:url(#SVGID_00000118363579345642275080000010959933165729634987_);mask:url(#SVGID_00000167376785835839196270000001253714079500645285_);fill-rule:evenodd;clip-rule:evenodd;fill:#FFFFFF;" d="
				M119.5,304.7H-10.6v-10.3l519.9-146L119.5,304.7L119.5,304.7z M327.6,304.7h-91.2l272.9-156.3L327.6,304.7L327.6,304.7z
				 M475.3,304.7h-70.4l104.4-156.3L475.3,304.7L475.3,304.7z M613.9,304.7h-70.4l-34.2-156.3L613.9,304.7L613.9,304.7z
				 M782.5,304.7h-91.2L509.3,148.4L782.5,304.7L782.5,304.7z M1029.2,294.2v10.4H899.4L509.3,148.4L1029.2,294.2L1029.2,294.2z
				 M-10.6,245.6v-41.3l519.9-55.9L-10.6,245.6L-10.6,245.6z M1029.2,204.2v41.3l-519.9-97.1L1029.2,204.2L1029.2,204.2z
				 M509.3,148.4l-519.9,18.3v-36.5L509.3,148.4L509.3,148.4z M1029.2,130.1v36.5l-519.9-18.2L1029.2,130.1L1029.2,130.1z
				 M509.3,148.4L543.3-8h70.4L509.3,148.4L509.3,148.4z M509.3,148.4L404.7-8h70.4L509.3,148.4L509.3,148.4z M509.3,148.4
				L-10.6,92.6V51.2L509.3,148.4L509.3,148.4z M1029.2,51.1v41.3l-519.9,55.9L1029.2,51.1L1029.2,51.1z M509.3,148.4L691-8h91.2
				L509.3,148.4L509.3,148.4z M509.3,148.4L236.2-8h91.2L509.3,148.4L509.3,148.4z M509.3,148.4L-10.6,2.5V-8h129.8L509.3,148.4
				L509.3,148.4z M1029.2,2.4l-519.9,146L899.1-8h130.1V2.4L1029.2,2.4z"/>
		</g>
		<g>
			<defs>
				<rect id="SVGID_00000049923217819413426060000018028138366938114965_" x="-10.6" y="192.7" width="1039.8" height="115.6"/>
			</defs>
			<clipPath id="SVGID_00000177442060782449390830000013566462380840996751_">
				<use xlink:href="#SVGID_00000049923217819413426060000018028138366938114965_"  style="overflow:visible;"/>
			</clipPath>
			<defs>
				
					<filter id="Adobe_OpacityMaskFilter_00000079484236525258948160000011385669656898099127_" filterUnits="userSpaceOnUse" x="-10.6" y="-4.4" width="1039.8" height="312.6">
					<feColorMatrix  type="matrix" values="1 0 0 0 0  0 1 0 0 0  0 0 1 0 0  0 0 0 1 0"/>
				</filter>
			</defs>
			
				<mask maskUnits="userSpaceOnUse" x="-10.6" y="-4.4" width="1039.8" height="312.6" id="SVGID_00000183246034493643334150000002513062181487646343_">
				<g style="filter:url(#Adobe_OpacityMaskFilter_00000079484236525258948160000011385669656898099127_);">
					
						<radialGradient id="SVGID_00000063607757111747615900000016570293815443784101_" cx="514.5113" cy="-324.9028" r="390.5497" gradientTransform="matrix(1 0 0 -0.3847 0 27.9621)" gradientUnits="userSpaceOnUse">
						<stop  offset="0.2218" style="stop-color:#000000"/>
						<stop  offset="0.3918" style="stop-color:#030303"/>
						<stop  offset="0.4973" style="stop-color:#0B0B0B"/>
						<stop  offset="0.5854" style="stop-color:#1A1A1A"/>
						<stop  offset="0.6639" style="stop-color:#2E2E2E"/>
						<stop  offset="0.7359" style="stop-color:#494949"/>
						<stop  offset="0.8033" style="stop-color:#6A6A6A"/>
						<stop  offset="0.8671" style="stop-color:#919191"/>
						<stop  offset="0.928" style="stop-color:#BEBEBE"/>
						<stop  offset="0.9846" style="stop-color:#F0F0F0"/>
						<stop  offset="1" style="stop-color:#FFFFFF"/>
					</radialGradient>
					
						<rect x="-9.3" y="-4.4" style="clip-path:url(#SVGID_00000177442060782449390830000013566462380840996751_);fill:url(#SVGID_00000063607757111747615900000016570293815443784101_);" width="1037.7" height="312.6"/>
				</g>
			</mask>
			
				<path style="opacity:8.000000e-02;clip-path:url(#SVGID_00000177442060782449390830000013566462380840996751_);mask:url(#SVGID_00000183246034493643334150000002513062181487646343_);fill-rule:evenodd;clip-rule:evenodd;fill:#FFFFFF;" d="
				M119.5-4.4L509.3,152L-10.6,6V-4.4H119.5L119.5-4.4z M327.6-4.4L509.3,152L236.4-4.4H327.6L327.6-4.4z M475.3-4.4l34,156.3
				L404.9-4.4H475.3L475.3-4.4z M613.9-4.4L509.3,152L543.5-4.4H613.9L613.9-4.4z M782.5-4.4L509.3,152L691.2-4.4H782.5L782.5-4.4z
				 M1029.2,6.1L509.3,152L899.4-4.4h129.8V6.1L1029.2,6.1z M-10.6,54.7L509.3,152L-10.6,96.1V54.7L-10.6,54.7z M1029.2,96.2
				L509.3,152l519.9-97.1V96.2L1029.2,96.2z M509.3,152l-519.9,18.2v-36.5L509.3,152L509.3,152z M1029.2,170.2L509.3,152l519.9-18.2
				V170.2L1029.2,170.2z M509.3,152l104.4,156.3h-70.4L509.3,152L509.3,152z M509.3,152l-34.2,156.3h-70.4L509.3,152L509.3,152z
				 M509.3,152l-519.9,97.1v-41.3L509.3,152L509.3,152z M1029.2,249.2L509.3,152l519.9,55.9V249.2L1029.2,249.2z M509.3,152
				l272.9,156.3H691L509.3,152L509.3,152z M509.3,152L327.4,308.3h-91.2L509.3,152L509.3,152z M509.3,152L119.2,308.3H-10.6v-10.4
				L509.3,152L509.3,152z M1029.2,298v10.3H899.1L509.3,152L1029.2,298L1029.2,298z"/>
		</g>
		<g>
			<g>
				
					<image style="overflow:visible;opacity:0.75;" width="1639" height="860" xlink:href="AFDC4B1A.png"  transform="matrix(0.24 0 0 0.24 42.2469 30.7269)">
				</image>
				<g>
					<g>
						<g>
							
								<linearGradient id="SVGID_00000049935465512679545530000014835458106520705443_" gradientUnits="userSpaceOnUse" x1="456.4489" y1="130.5646" x2="838.8486" y2="130.5646" gradientTransform="matrix(1 0 0 1 -412.079 0)">
								<stop  offset="7.262570e-02" style="stop-color:#D2AD15"/>
								<stop  offset="0.5056" style="stop-color:#8E7728"/>
								<stop  offset="1" style="stop-color:#9E8324"/>
							</linearGradient>
							
								<linearGradient id="SVGID_00000137108309485943874600000013993035658946497464_" gradientUnits="userSpaceOnUse" x1="456.2099" y1="130.5646" x2="839.0923" y2="130.5646" gradientTransform="matrix(1 0 0 1 -412.079 0)">
								<stop  offset="7.262570e-02" style="stop-color:#D2AD15"/>
								<stop  offset="0.5056" style="stop-color:#8E7728"/>
								<stop  offset="0.7107" style="stop-color:#AC8E21"/>
								<stop  offset="1" style="stop-color:#D2AD15"/>
							</linearGradient>
							
								<path style="opacity:0.35;fill:url(#SVGID_00000049935465512679545530000014835458106520705443_);stroke:url(#SVGID_00000137108309485943874600000013993035658946497464_);stroke-width:0.4166;stroke-miterlimit:10;" d="
								M426.8,217.3c0,0-143.3,11.1-191.2,11.1S44.4,217.3,44.4,217.3l12.9-86.8L44.4,43.8c0,0,143.3-11.1,191.2-11.1
								s191.2,11.1,191.2,11.1L412,130.6L426.8,217.3z"/>
							
								<linearGradient id="SVGID_00000059298425808970087310000007719187519357207702_" gradientUnits="userSpaceOnUse" x1="471.015" y1="130.5646" x2="824.2825" y2="130.5646" gradientTransform="matrix(1 0 0 1 -412.079 0)">
								<stop  offset="7.262570e-02" style="stop-color:#D2AD15"/>
								<stop  offset="0.5056" style="stop-color:#8E7728"/>
								<stop  offset="1" style="stop-color:#9E8324"/>
							</linearGradient>
							
								<linearGradient id="SVGID_00000061448960891033272210000018331009509833086349_" gradientUnits="userSpaceOnUse" x1="470.7844" y1="130.5646" x2="824.5131" y2="130.5646" gradientTransform="matrix(1 0 0 1 -412.079 0)">
								<stop  offset="7.262570e-02" style="stop-color:#D2AD15"/>
								<stop  offset="0.5056" style="stop-color:#8E7728"/>
								<stop  offset="0.7107" style="stop-color:#AC8E21"/>
								<stop  offset="1" style="stop-color:#D2AD15"/>
							</linearGradient>
							
								<path style="fill:url(#SVGID_00000059298425808970087310000007719187519357207702_);stroke:url(#SVGID_00000061448960891033272210000018331009509833086349_);stroke-width:0.4013;stroke-miterlimit:10;" d="
								M412.2,203.6c0,0-132.5,11.1-176.6,11.1S58.9,203.6,58.9,203.6l11.1-73l-11.1-73c0,0,132.5-11.1,176.6-11.1
								s176.6,11.1,176.6,11.1l-11.1,73L412.2,203.6z"/>
						</g>
						<g>
							
								<image style="overflow:visible;opacity:0.75;" width="1104" height="140" xlink:href="AFDC4B1E.png"  transform="matrix(0.24 0 0 0.24 106.5374 161.9774)">
							</image>
							<g>
								<g>
									<path class="st10" d="M117.2,174.4l-1.5,5.2c-0.2,0.7-0.3,1.3-0.3,1.6c0,0.4,0.1,0.7,0.4,1c0.3,0.2,0.9,0.3,1.9,0.4
										l-0.2,0.5h-9.1l0.2-0.5c0.8,0,1.3-0.1,1.6-0.2c0.3-0.1,0.6-0.4,0.8-0.7c0.2-0.2,0.4-0.9,0.7-1.9l3.5-11.9
										c0.2-0.8,0.4-1.4,0.4-1.7c0-0.3-0.2-0.6-0.5-0.9c-0.3-0.2-0.9-0.4-1.7-0.4l0.2-0.5h7.4c2,0,3.5,0.3,4.4,0.8
										c1.4,0.8,2.1,2,2.1,3.6c0,1.6-0.7,2.9-2.1,4.1c-1.4,1.2-3.2,1.8-5.6,1.8C119.1,174.6,118.2,174.6,117.2,174.4z
										 M117.5,173.3c0.6,0.1,1.1,0.1,1.5,0.1c1.3,0,2.3-0.6,3-1.7c0.7-1.2,1.1-2.4,1.1-3.6c0-0.9-0.2-1.5-0.7-2s-1.1-0.7-1.9-0.7
										c-0.2,0-0.4,0-0.6,0L117.5,173.3z"/>
									<path class="st10" d="M131.9,169.6l-3.2,11c-0.2,0.6-0.3,1.1-0.3,1.2c0,0.1,0,0.2,0.1,0.2c0.1,0.1,0.1,0.1,0.2,0.1
										c0.1,0,0.2,0,0.3-0.1c0.3-0.3,0.7-0.7,1-1.3l0.4,0.2c-0.6,1-1.2,1.7-1.8,2.1c-0.4,0.3-0.8,0.4-1.3,0.4
										c-0.4,0-0.8-0.1-1-0.3s-0.4-0.5-0.4-0.8c0-0.2,0.1-0.6,0.2-1.2l2.6-9c0.1-0.5,0.2-0.8,0.2-1c0-0.2-0.1-0.3-0.2-0.4
										c-0.2-0.1-0.5-0.2-0.8-0.2l0.1-0.4l3.3-0.6H131.9z"/>
									<path class="st10" d="M140.7,174.2l-1.9,6.5l-0.2,0.8c0,0.1,0,0.2,0,0.2c0,0.1,0,0.1,0.1,0.2c0.1,0.1,0.1,0.1,0.2,0.1
										c0.1,0,0.3-0.1,0.6-0.3c0.1-0.1,0.3-0.4,0.7-0.9l0.3,0.2c-0.5,0.8-1,1.5-1.5,1.8c-0.5,0.4-1.1,0.6-1.7,0.6
										c-0.4,0-0.7-0.1-0.8-0.3c-0.2-0.2-0.3-0.4-0.3-0.7c0-0.3,0.1-0.7,0.3-1.4l0.2-0.8c-0.8,1.3-1.5,2.2-2.2,2.7
										c-0.4,0.3-0.8,0.5-1.3,0.5c-0.6,0-1-0.2-1.3-0.7c-0.3-0.5-0.4-1-0.4-1.7c0-0.9,0.3-2,0.8-3.2c0.6-1.2,1.3-2.1,2.2-2.9
										c0.7-0.6,1.4-0.9,2.1-0.9c0.4,0,0.7,0.1,0.9,0.3c0.2,0.2,0.4,0.6,0.5,1.2l0.4-1.2L140.7,174.2z M137.5,176.1
										c0-0.5-0.1-0.9-0.2-1.1c-0.1-0.2-0.3-0.2-0.5-0.2c-0.2,0-0.4,0.1-0.6,0.3c-0.4,0.4-0.9,1.2-1.4,2.5
										c-0.5,1.2-0.8,2.3-0.8,3.2c0,0.3,0.1,0.6,0.2,0.7c0.1,0.2,0.2,0.2,0.4,0.2c0.3,0,0.6-0.2,0.9-0.5c0.4-0.5,0.8-1.1,1.2-1.8
										C137.2,178.1,137.5,177,137.5,176.1z"/>
									<path class="st10" d="M146.8,171.7l-0.8,2.7h1.3l-0.3,1.1h-1.3l-1.6,5.7c-0.1,0.4-0.2,0.6-0.2,0.8c0,0.1,0,0.2,0.1,0.2
										c0.1,0.1,0.1,0.1,0.2,0.1c0.1,0,0.2,0,0.3-0.1c0.3-0.2,0.6-0.6,1-1.2l0.3,0.2c-0.4,0.8-0.9,1.4-1.5,1.7
										c-0.5,0.4-1.1,0.5-1.6,0.5c-0.4,0-0.8-0.1-1-0.3c-0.2-0.2-0.4-0.5-0.4-0.9c0-0.4,0.1-0.9,0.3-1.5l1.5-5.3h-1.3l0.2-0.7
										c0.8-0.3,1.5-0.7,2.1-1.1c0.6-0.4,1.3-1.1,2.1-2H146.8z"/>
									<path class="st10" d="M151.7,174.1l-2,6.9c-0.1,0.4-0.2,0.7-0.2,0.8c0,0.1,0,0.1,0.1,0.2c0.1,0.1,0.1,0.1,0.2,0.1
										c0.1,0,0.2,0,0.3-0.1c0.3-0.2,0.6-0.7,1.1-1.3l0.3,0.2c-1,1.7-2,2.6-3.1,2.6c-0.4,0-0.8-0.1-1-0.4s-0.4-0.5-0.4-0.9
										c0-0.2,0.1-0.5,0.2-0.9l1.4-4.7c0.1-0.4,0.2-0.8,0.2-1c0-0.1-0.1-0.3-0.2-0.4c-0.1-0.1-0.3-0.2-0.5-0.2c-0.1,0-0.2,0-0.4,0
										l0.1-0.4l3.3-0.5H151.7z M151.1,167.8c0.7,0,1.2,0.2,1.7,0.7c0.4,0.5,0.7,1,0.7,1.6s-0.2,1.2-0.7,1.6
										c-0.5,0.5-1,0.7-1.6,0.7c-0.6,0-1.2-0.2-1.6-0.7c-0.5-0.5-0.7-1-0.7-1.6s0.2-1.2,0.7-1.6
										C149.9,168,150.4,167.8,151.1,167.8z"/>
									<path class="st10" d="M157.5,174.1l-1.2,4.2c0.8-1.2,1.4-2.1,1.8-2.5c0.6-0.6,1.1-1.1,1.5-1.3c0.4-0.2,0.8-0.4,1.2-0.4
										c0.3,0,0.6,0.1,0.9,0.4s0.4,0.6,0.4,1c0,0.4-0.1,0.8-0.2,1.3l-1.2,4.2c-0.1,0.4-0.2,0.6-0.2,0.7c0,0.1,0,0.1,0.1,0.2
										s0.1,0.1,0.2,0.1c0.1,0,0.1,0,0.2-0.1c0.2-0.2,0.5-0.5,0.7-0.8c0.1-0.1,0.2-0.2,0.3-0.4l0.4,0.2c-1,1.6-2,2.4-3,2.4
										c-0.4,0-0.7-0.1-0.9-0.3c-0.2-0.2-0.3-0.5-0.3-0.8c0-0.3,0.1-0.7,0.2-1.2l1.2-4.2c0.1-0.3,0.1-0.5,0.1-0.6
										c0-0.1,0-0.1-0.1-0.2c-0.1-0.1-0.1-0.1-0.2-0.1c-0.2,0-0.5,0.2-0.9,0.5c-0.9,0.9-1.8,2.1-2.6,3.8l-0.8,2.9h-2.5l1.8-6.3
										c0.2-0.6,0.3-1.1,0.3-1.3c0-0.1,0-0.2-0.1-0.3c-0.1-0.1-0.1-0.1-0.3-0.2c-0.1,0-0.3-0.1-0.7-0.1l0.1-0.4l3.3-0.6H157.5z"/>
									<path class="st10" d="M168.1,174.1l-1.9,6.6c-0.1,0.3-0.1,0.5-0.1,0.6c0,0.1,0,0.1,0.1,0.1c0.1,0.1,0.1,0.1,0.2,0.1
										c0.3,0,0.7-0.3,1.2-0.8c0.7-0.8,1.5-1.9,2.3-3.3l0.9-3l2.5-0.1l-1.9,6.4c-0.2,0.5-0.2,0.9-0.2,0.9c0,0.1,0,0.1,0.1,0.2
										c0,0.1,0.1,0.1,0.2,0.1c0.1,0,0.2,0,0.3-0.1c0.2-0.2,0.5-0.6,0.9-1.1l0.3,0.2c-0.9,1.6-1.9,2.4-3,2.4c-0.4,0-0.7-0.1-1-0.3
										c-0.2-0.2-0.3-0.5-0.3-0.8c0-0.4,0.1-0.8,0.2-1.3l0.5-1.6c-0.8,1.2-1.5,2.1-1.8,2.5c-0.6,0.6-1.1,1.1-1.5,1.3
										c-0.4,0.2-0.8,0.3-1.1,0.3c-0.3,0-0.6-0.1-0.9-0.4s-0.4-0.6-0.4-1c0-0.3,0.1-0.8,0.2-1.3l1.1-3.9c0.2-0.6,0.3-1.1,0.3-1.3
										c0-0.1,0-0.2-0.1-0.3c-0.1-0.1-0.1-0.1-0.3-0.2c-0.1,0-0.3-0.1-0.7-0.1l0.1-0.4l3.3-0.6H168.1z"/>
									<path class="st10" d="M178.8,174.1l-1.2,4.2c0.8-1.3,1.4-2.2,1.8-2.6c0.6-0.7,1-1.1,1.4-1.3c0.4-0.2,0.7-0.3,1.1-0.3
										c0.4,0,0.7,0.1,0.9,0.4c0.2,0.3,0.3,0.5,0.3,0.8c0,0.3-0.1,0.8-0.3,1.4l-0.4,1.6c0.8-1.3,1.5-2.2,1.8-2.6
										c0.6-0.7,1.1-1.1,1.5-1.3c0.3-0.2,0.6-0.3,0.9-0.3c0.3,0,0.6,0.1,0.9,0.3c0.2,0.2,0.3,0.5,0.3,0.9c0,0.4-0.1,1-0.3,1.6
										l-1.1,3.6c-0.2,0.5-0.2,0.9-0.2,1c0,0.1,0,0.1,0.1,0.1c0,0,0.1,0.1,0.1,0.1c0.1,0,0.1,0,0.2-0.1c0.2-0.2,0.5-0.5,0.7-0.8
										c0.1-0.1,0.1-0.2,0.3-0.4l0.3,0.2c-0.4,0.8-0.9,1.5-1.5,1.8c-0.5,0.4-1,0.6-1.5,0.6c-0.4,0-0.7-0.1-1-0.3
										c-0.2-0.2-0.4-0.5-0.4-0.8c0-0.3,0.1-0.7,0.2-1.3l1.1-3.8c0.1-0.5,0.2-0.9,0.2-1c0,0,0-0.1-0.1-0.1c0,0-0.1-0.1-0.1-0.1
										c-0.1,0-0.2,0-0.3,0.1c-0.1,0.1-0.3,0.2-0.6,0.5c-0.3,0.3-0.6,0.8-1.1,1.5c-0.5,0.7-0.8,1.3-1,1.7
										c-0.2,0.4-0.4,0.9-0.6,1.5l-0.6,2h-2.5l1.8-6.4c0.1-0.3,0.1-0.6,0.1-0.7c0,0,0-0.1-0.1-0.1c0,0-0.1-0.1-0.1-0.1
										c-0.2,0-0.6,0.3-1.1,0.9c-0.8,1-1.5,2.1-2.2,3.5l-0.8,2.8h-2.5l1.8-6.3c0.2-0.6,0.3-1.1,0.3-1.3c0-0.1,0-0.2-0.1-0.3
										c-0.1-0.1-0.1-0.1-0.3-0.2c-0.1,0-0.3-0.1-0.7-0.1l0.1-0.4l3.3-0.6H178.8z"/>
									<path class="st10" d="M202.7,177h-5.8l-1.2,1.4l-1.3,1.6c-0.3,0.3-0.4,0.6-0.6,0.9c-0.1,0.2-0.1,0.4-0.1,0.6
										c0,0.2,0.1,0.4,0.4,0.6c0.2,0.2,0.6,0.3,1.2,0.3v0.5h-5.6l0.1-0.5c0.5-0.1,0.9-0.3,1.3-0.5c0.5-0.4,1.3-1.1,2.2-2.3
										l13.3-15.8h0.6l-0.6,15.3c0,0.8,0,1.3,0,1.4c0,0.6,0.1,1.1,0.4,1.4c0.3,0.3,0.7,0.5,1.3,0.5L208,183h-8.1l0.2-0.5
										c0.8-0.1,1.3-0.1,1.4-0.2c0.3-0.1,0.5-0.4,0.7-0.8s0.3-1.1,0.4-2.1L202.7,177z M202.7,175.8l0.4-6.1l-5.2,6.1H202.7z"/>
									<path class="st10" d="M213.5,174.1l-1.9,6.6c-0.1,0.3-0.1,0.5-0.1,0.6c0,0.1,0,0.1,0.1,0.1c0.1,0.1,0.1,0.1,0.2,0.1
										c0.3,0,0.7-0.3,1.2-0.8c0.7-0.8,1.5-1.9,2.3-3.3l0.9-3l2.5-0.1l-1.9,6.4c-0.2,0.5-0.2,0.9-0.2,0.9c0,0.1,0,0.1,0.1,0.2
										c0,0.1,0.1,0.1,0.2,0.1c0.1,0,0.2,0,0.3-0.1c0.2-0.2,0.5-0.6,0.9-1.1l0.3,0.2c-0.9,1.6-1.9,2.4-3,2.4c-0.4,0-0.7-0.1-1-0.3
										c-0.2-0.2-0.3-0.5-0.3-0.8c0-0.4,0.1-0.8,0.2-1.3l0.5-1.6c-0.8,1.2-1.5,2.1-1.8,2.5c-0.6,0.6-1.1,1.1-1.5,1.3
										c-0.4,0.2-0.8,0.3-1.1,0.3c-0.3,0-0.6-0.1-0.9-0.4s-0.4-0.6-0.4-1c0-0.3,0.1-0.8,0.2-1.3l1.1-3.9c0.2-0.6,0.3-1.1,0.3-1.3
										c0-0.1,0-0.2-0.1-0.3c-0.1-0.1-0.1-0.1-0.3-0.2c-0.1,0-0.3-0.1-0.7-0.1l0.1-0.4l3.3-0.6H213.5z"/>
									<path class="st10" d="M225.1,171.7l-0.8,2.7h1.3l-0.3,1.1H224l-1.6,5.7c-0.1,0.4-0.2,0.6-0.2,0.8c0,0.1,0,0.2,0.1,0.2
										c0.1,0.1,0.1,0.1,0.2,0.1c0.1,0,0.2,0,0.3-0.1c0.3-0.2,0.6-0.6,1-1.2l0.3,0.2c-0.4,0.8-0.9,1.4-1.5,1.7
										c-0.5,0.4-1.1,0.5-1.6,0.5c-0.4,0-0.8-0.1-1-0.3c-0.2-0.2-0.4-0.5-0.4-0.9c0-0.4,0.1-0.9,0.3-1.5l1.5-5.3h-1.3l0.2-0.7
										c0.8-0.3,1.5-0.7,2.1-1.1s1.3-1.1,2.1-2H225.1z"/>
									<path class="st10" d="M231.4,174.1c0.5,0,1,0.1,1.4,0.4s0.8,0.6,1,1s0.3,0.9,0.3,1.4c0,1.1-0.3,2.1-0.9,3.2
										c-0.6,1.1-1.4,1.9-2.3,2.5c-1,0.6-1.9,0.9-2.9,0.9c-0.9,0-1.6-0.3-2.1-0.8c-0.5-0.5-0.7-1.2-0.7-1.9c0-0.9,0.2-1.7,0.5-2.5
										c0.4-0.8,0.8-1.5,1.4-2.1c0.6-0.6,1.2-1.1,1.9-1.4C229.9,174.3,230.7,174.1,231.4,174.1z M231,174.6
										c-0.3,0-0.6,0.1-0.9,0.3c-0.5,0.4-1,1.4-1.5,2.9s-0.9,2.9-0.9,4.1c0,0.3,0.1,0.5,0.3,0.7c0.2,0.2,0.4,0.3,0.6,0.3
										c0.3,0,0.5-0.1,0.7-0.2c0.3-0.2,0.6-0.8,1.1-1.6c0.4-0.8,0.8-1.7,1-2.7c0.3-1,0.4-1.9,0.4-2.7c0-0.3-0.1-0.6-0.2-0.8
										C231.4,174.7,231.3,174.6,231,174.6z"/>
									<path class="st10" d="M253.3,164.8l-1.6,6.4h-0.5c-0.1-1-0.3-1.8-0.5-2.4c-0.4-0.9-0.9-1.5-1.5-2c-0.6-0.5-1.3-0.7-2.1-0.7
										c-0.7,0-1.3,0.3-1.9,0.8c-0.5,0.5-0.8,1.2-0.8,1.9c0,0.7,0.2,1.4,0.6,2c0.4,0.7,1.3,1.7,2.6,3c1.1,1.1,1.9,2,2.2,2.7
										c0.4,0.8,0.6,1.6,0.6,2.5c0,1-0.3,1.9-0.8,2.8c-0.5,0.8-1.3,1.5-2.3,2c-1,0.5-2.2,0.7-3.5,0.7c-0.8,0-1.8-0.1-3-0.4
										c-1.2-0.2-2-0.4-2.4-0.4c-0.3,0-0.6,0-0.8,0.1c-0.2,0.1-0.6,0.3-0.9,0.6h-0.5l1.7-7.1h0.5c0.1,1.3,0.4,2.3,0.8,3.2
										s0.9,1.6,1.7,2.1c0.7,0.5,1.5,0.7,2.5,0.7c0.9,0,1.7-0.3,2.3-0.9c0.6-0.6,0.9-1.3,0.9-2.1c0-0.7-0.2-1.4-0.5-2
										c-0.3-0.6-1.1-1.6-2.4-2.8c-1.2-1.2-2.1-2.3-2.5-3.3c-0.3-0.7-0.5-1.5-0.5-2.3c0-1.4,0.5-2.6,1.6-3.6
										c1.1-1,2.5-1.5,4.3-1.5c0.8,0,1.9,0.2,3.2,0.5c0.8,0.2,1.3,0.3,1.6,0.3c0.3,0,0.5-0.1,0.7-0.2s0.5-0.3,0.7-0.7H253.3z"/>
									<path class="st10" d="M253.3,174.1l3.2-0.5h0.6l-0.4,1.6c0.7-0.6,1.2-1,1.7-1.3c0.4-0.2,0.9-0.3,1.3-0.3
										c0.6,0,1.1,0.2,1.4,0.7c0.3,0.5,0.5,1,0.5,1.7c0,1.9-0.6,3.5-1.9,5c-1.1,1.3-2.4,1.9-3.7,1.9c-0.2,0-0.4,0-0.6-0.1
										c-0.2,0-0.4-0.1-0.7-0.3l-0.5,1.8c-0.2,0.6-0.3,1.1-0.3,1.5c0,0.2,0.1,0.4,0.2,0.5c0.1,0.1,0.5,0.2,1,0.3l-0.1,0.4h-5.2
										l0.1-0.4c0.4,0,0.8-0.1,1-0.4c0.3-0.3,0.5-0.8,0.8-1.6l2.4-8.2c0.2-0.6,0.3-1,0.3-1.3c0-0.1,0-0.2-0.1-0.3
										c-0.1-0.1-0.1-0.1-0.2-0.2c-0.1,0-0.3,0-0.7,0L253.3,174.1z M254.8,181.6c0.2,0.3,0.4,0.5,0.5,0.6c0.2,0.1,0.3,0.2,0.5,0.2
										c0.2,0,0.4-0.1,0.6-0.2c0.2-0.1,0.4-0.3,0.7-0.7s0.6-0.8,0.8-1.3c0.3-0.5,0.5-1.2,0.6-1.8s0.2-1.3,0.2-2
										c0-0.5-0.1-0.9-0.3-1.1c-0.2-0.2-0.4-0.3-0.6-0.3c-0.2,0-0.4,0.1-0.6,0.2c-0.3,0.2-0.6,0.5-1,0.9L254.8,181.6z"/>
									<path class="st10" d="M271.6,173.7l-1.9,6.5l-0.2,0.8c0,0.1,0,0.2,0,0.2c0,0.1,0,0.1,0.1,0.2s0.1,0.1,0.2,0.1
										c0.1,0,0.3-0.1,0.6-0.3c0.1-0.1,0.3-0.4,0.7-0.9l0.3,0.2c-0.5,0.8-1,1.5-1.5,1.8c-0.5,0.4-1.1,0.6-1.7,0.6
										c-0.4,0-0.7-0.1-0.8-0.3c-0.2-0.2-0.3-0.4-0.3-0.7c0-0.3,0.1-0.7,0.3-1.4l0.2-0.8c-0.8,1.3-1.5,2.2-2.2,2.7
										c-0.4,0.3-0.8,0.5-1.3,0.5c-0.6,0-1-0.2-1.3-0.7c-0.3-0.5-0.4-1-0.4-1.7c0-0.9,0.3-2,0.8-3.2s1.3-2.1,2.2-2.9
										c0.7-0.6,1.4-0.9,2.1-0.9c0.4,0,0.7,0.1,0.9,0.3c0.2,0.2,0.4,0.6,0.5,1.2l0.4-1.2L271.6,173.7z M268.5,175.6
										c0-0.5-0.1-0.9-0.2-1.1c-0.1-0.2-0.3-0.2-0.5-0.2s-0.4,0.1-0.6,0.3c-0.4,0.4-0.9,1.2-1.4,2.5c-0.5,1.2-0.8,2.3-0.8,3.2
										c0,0.3,0.1,0.6,0.2,0.7c0.1,0.2,0.2,0.2,0.4,0.2c0.3,0,0.6-0.2,0.9-0.5c0.4-0.5,0.8-1.1,1.2-1.8
										C268.2,177.6,268.5,176.5,268.5,175.6z"/>
									<path class="st10" d="M279.5,180.3l0.3,0.3c-0.6,0.8-1.3,1.3-1.9,1.7c-0.8,0.5-1.7,0.7-2.5,0.7c-0.6,0-1.1-0.1-1.6-0.4
										s-0.8-0.6-1-1.1c-0.2-0.5-0.3-0.9-0.3-1.4c0-1.1,0.3-2.1,0.9-3.1c0.6-1,1.3-1.8,2.3-2.4c0.9-0.6,1.9-0.9,2.8-0.9
										c0.7,0,1.3,0.2,1.7,0.5s0.6,0.7,0.6,1.2c0,0.4-0.1,0.8-0.4,1.1c-0.3,0.3-0.6,0.5-0.9,0.5c-0.3,0-0.5-0.1-0.7-0.3
										c-0.2-0.2-0.3-0.4-0.3-0.7c0-0.4,0.2-0.7,0.5-0.9c0.2-0.2,0.4-0.3,0.4-0.5c0-0.1,0-0.2-0.1-0.3c-0.1-0.1-0.3-0.2-0.5-0.2
										c-0.5,0-1.1,0.2-1.5,0.7c-0.6,0.6-1.1,1.3-1.5,2.2c-0.3,0.9-0.5,1.7-0.5,2.6c0,0.6,0.2,1.1,0.5,1.5
										c0.3,0.4,0.8,0.6,1.2,0.6c0.4,0,0.9-0.1,1.4-0.3S279.1,180.7,279.5,180.3z"/>
									<path class="st10" d="M284,179c-0.1,0.4-0.1,0.8-0.1,1c0,0.5,0.1,0.9,0.4,1.2c0.3,0.3,0.7,0.4,1.1,0.4
										c0.5,0,0.9-0.1,1.4-0.3c0.5-0.2,1-0.6,1.6-1.2l0.3,0.3c-0.7,0.9-1.5,1.5-2.2,1.9c-0.7,0.4-1.5,0.6-2.3,0.6
										c-1.1,0-1.8-0.3-2.3-0.8c-0.4-0.5-0.6-1.1-0.6-1.8c0-1.1,0.3-2.1,0.9-3.2c0.6-1.1,1.5-1.9,2.5-2.6c1.1-0.6,2.1-1,3.2-1
										c0.5,0,1,0.1,1.2,0.4c0.3,0.3,0.4,0.6,0.4,1c0,0.5-0.1,0.9-0.4,1.4c-0.4,0.6-0.9,1.1-1.4,1.5c-0.6,0.4-1.2,0.7-1.9,0.9
										C285.4,178.8,284.8,178.9,284,179z M284.1,178.5c0.6-0.1,1-0.2,1.3-0.3c0.3-0.1,0.6-0.4,0.9-0.7c0.3-0.3,0.6-0.7,0.8-1.2
										c0.2-0.5,0.3-1,0.3-1.4c0-0.2-0.1-0.3-0.2-0.4c-0.1-0.1-0.2-0.2-0.4-0.2c-0.3,0-0.7,0.2-1.1,0.7
										C285.2,175.7,284.6,176.9,284.1,178.5z"/>
									<path class="st10" d="M294.5,176.6h8.8l-0.9,1.6h-8.8L294.5,176.6z"/>
									<path class="st10" d="M312.2,176.3l-1.4,4.8c-0.2,0.7-0.3,1.2-0.3,1.4c0,0.4,0.1,0.7,0.4,0.9c0.3,0.2,0.8,0.3,1.7,0.3
										l-0.2,0.5h-8.4l0.1-0.5c0.7,0,1.2-0.1,1.5-0.2c0.3-0.1,0.5-0.3,0.7-0.6c0.1-0.2,0.4-0.8,0.6-1.8l3.2-10.9
										c0.2-0.7,0.3-1.2,0.3-1.6s-0.1-0.6-0.4-0.8c-0.3-0.2-0.8-0.3-1.5-0.3l0.1-0.5h6.8c1.9,0,3.2,0.2,4,0.7
										c1.3,0.7,1.9,1.9,1.9,3.3c0,1.4-0.6,2.7-1.9,3.8c-1.3,1.1-3,1.6-5.1,1.6C313.9,176.5,313.1,176.4,312.2,176.3z
										 M312.5,175.3c0.5,0.1,1,0.1,1.4,0.1c1.2,0,2.1-0.5,2.7-1.6c0.7-1.1,1-2.2,1-3.3c0-0.8-0.2-1.4-0.6-1.8
										c-0.4-0.4-1-0.7-1.8-0.7c-0.2,0-0.4,0-0.6,0L312.5,175.3z"/>
									<path class="st10" d="M329.1,178.6h-5.3l-1.1,1.3l-1.2,1.5c-0.2,0.3-0.4,0.6-0.5,0.8c-0.1,0.2-0.1,0.4-0.1,0.6
										c0,0.2,0.1,0.4,0.3,0.6c0.2,0.2,0.6,0.3,1.1,0.3v0.5h-5.1l0.1-0.5c0.5-0.1,0.9-0.2,1.2-0.5c0.5-0.3,1.2-1,2-2.1l12.2-14.5
										h0.6l-0.6,14.1c0,0.7,0,1.2,0,1.3c0,0.6,0.1,1,0.3,1.3c0.2,0.3,0.6,0.4,1.2,0.5l-0.1,0.5h-7.4l0.1-0.5
										c0.7-0.1,1.2-0.1,1.3-0.2c0.2-0.1,0.5-0.4,0.6-0.7c0.2-0.4,0.3-1,0.4-2L329.1,178.6z M329.1,177.6l0.3-5.6l-4.8,5.6H329.1z
										"/>
									<path class="st10" d="M351.1,166.6l-1.4,5.8h-0.4c-0.1-0.9-0.3-1.6-0.5-2.2c-0.4-0.8-0.8-1.4-1.4-1.8s-1.2-0.6-1.9-0.6
										c-0.7,0-1.2,0.3-1.7,0.8c-0.5,0.5-0.7,1.1-0.7,1.7c0,0.6,0.2,1.2,0.5,1.8c0.3,0.6,1.2,1.5,2.4,2.7c1,1,1.7,1.8,2.1,2.5
										s0.5,1.5,0.5,2.3c0,0.9-0.2,1.8-0.7,2.5c-0.5,0.8-1.2,1.4-2.1,1.8c-0.9,0.4-2,0.6-3.2,0.6c-0.7,0-1.6-0.1-2.7-0.3
										c-1.1-0.2-1.8-0.3-2.2-0.3c-0.3,0-0.5,0-0.8,0.1c-0.2,0.1-0.5,0.3-0.8,0.5h-0.5l1.5-6.6h0.5c0.1,1.1,0.3,2.1,0.7,2.9
										c0.4,0.8,0.9,1.4,1.5,1.9c0.7,0.5,1.4,0.7,2.3,0.7c0.8,0,1.5-0.3,2.1-0.8c0.6-0.6,0.8-1.2,0.8-1.9c0-0.6-0.2-1.2-0.5-1.8
										c-0.3-0.6-1-1.4-2.2-2.5c-1.1-1.1-1.9-2.1-2.3-3c-0.3-0.6-0.5-1.3-0.5-2.1c0-1.3,0.5-2.4,1.5-3.3c1-0.9,2.3-1.4,3.9-1.4
										c0.7,0,1.7,0.2,2.9,0.5c0.7,0.2,1.2,0.3,1.5,0.3c0.2,0,0.5-0.1,0.7-0.2c0.2-0.1,0.4-0.3,0.7-0.6H351.1z"/>
									<path class="st10" d="M354,176.6h8.8l-0.9,1.6H353L354,176.6z"/>
								</g>
							</g>
						</g>
					</g>
				</g>
			</g>
			<g>
				<path class="st10" d="M106.9,258.4c1.3,0,1.5-0.2,1.5-2v-12c0-1.7-0.2-1.9-1.5-1.9v-0.9c1.3-0.2,3-0.6,4.6-1.2l0.4,0.2v8.1h0
					c1-1.2,2.5-2,4.1-2c3.5,0,3.7,2.7,3.7,4.3v5.4c0,1.6,0.1,2,1.3,2v1h-6v-1c1,0,1.2-0.2,1.2-2v-5.2c0-1.7-0.1-2.9-1.6-2.9
					c-0.9,0-1.8,0.9-2.7,2v6.1c0,1.8,0.1,2,1.1,2v1h-6.2V258.4z"/>
				<path class="st10" d="M122,248.2v-0.9c1.9-0.2,3.1-1.5,4-4.2h1v3.9h2.9v1.2H127v8c0,1.6,0.5,2.1,1.3,2.1c0.6,0,1.1-0.2,1.6-0.6
					l0.6,0.9c-0.8,0.7-1.8,1.1-3.4,1.1c-2,0-3.7-0.8-3.7-3.6v-7.9H122z"/>
				<path class="st10" d="M131.3,248.2v-0.9c1.9-0.2,3.1-1.5,4-4.2h1v3.9h2.9v1.2h-2.9v8c0,1.6,0.5,2.1,1.3,2.1
					c0.6,0,1.1-0.2,1.6-0.6l0.6,0.9c-0.8,0.7-1.8,1.1-3.4,1.1c-2,0-3.7-0.8-3.7-3.6v-7.9H131.3z"/>
				<path class="st10" d="M145.7,258.4v4.3c0,1.7,0.1,1.9,1.4,1.9v1h-6.4v-1c1.3,0,1.5-0.2,1.5-1.9v-12c0-1.7-0.1-1.9-1.5-1.9v-1
					c1.2-0.1,3-0.6,4.5-1.2l0.4,0.2l0.1,1.5h0c0.9-1.1,1.9-1.7,3.5-1.7c2.7,0,4.9,2.1,4.9,6.4c0,4.7-2.2,6.6-5.2,6.6
					C147.4,259.7,146.4,259.2,145.7,258.4L145.7,258.4z M145.7,256.8c0.6,0.9,1.4,1.5,2.2,1.5c2.2,0,2.3-3.6,2.3-5.3
					c0-1,0-4.9-2.3-4.9c-1,0-1.7,0.8-2.3,1.7V256.8z"/>
				<path class="st10" d="M156.5,255.5c0.6,2.3,1.7,3.1,3.1,3.1c1.8,0,2.1-1.2,2.1-1.8c0-0.4-0.1-0.8-0.4-1.1
					c-0.4-0.5-1-0.8-2.2-1.5c-1-0.7-1.9-1.2-2.5-1.9c-0.5-0.6-0.9-1.3-0.9-2.2c0-1.9,1.9-3.3,5-3.3c1.6,0,2.7,0.3,3.5,0.5
					c0.1,0.8,0.2,1.6,0.5,3l-1.1,0.2c-0.4-1.9-1.1-2.6-2.6-2.6c-0.9,0-1.9,0.4-1.9,1.4c0,0.5,0.4,1,1,1.5c0.7,0.4,1.6,0.9,2.3,1.4
					c1,0.6,3,1.8,3,3.8s-1.7,3.8-5.3,3.8c-1.8,0-3.1-0.3-4.1-0.7c-0.1-1.1-0.3-2-0.5-3.3L156.5,255.5z"/>
				<path class="st10" d="M170.7,248.6c0,1-0.8,1.9-1.8,1.9c-1.1,0-1.9-0.9-1.9-1.9c0-1,0.8-1.8,1.9-1.8
					C170,246.8,170.7,247.6,170.7,248.6z M170.8,257.8c0,1-0.8,1.9-1.8,1.9c-1.1,0-1.9-0.9-1.9-1.9c0-1,0.8-1.9,1.9-1.9
					C170,256,170.8,256.9,170.8,257.8z"/>
				<path class="st10" d="M180.5,240.4l-6.8,19.3h-1.8l6.8-19.3H180.5z"/>
				<path class="st10" d="M189.5,240.4l-6.8,19.3H181l6.8-19.3H189.5z"/>
				<path class="st10" d="M195.3,258.4v4.3c0,1.7,0.1,1.9,1.4,1.9v1h-6.4v-1c1.3,0,1.5-0.2,1.5-1.9v-12c0-1.7-0.1-1.9-1.5-1.9v-1
					c1.2-0.1,3-0.6,4.5-1.2l0.4,0.2l0.1,1.5h0c0.9-1.1,1.9-1.7,3.5-1.7c2.7,0,4.9,2.1,4.9,6.4c0,4.7-2.2,6.6-5.2,6.6
					C197,259.7,196.1,259.2,195.3,258.4L195.3,258.4z M195.3,256.8c0.6,0.9,1.4,1.5,2.2,1.5c2.2,0,2.3-3.6,2.3-5.3
					c0-1,0-4.9-2.3-4.9c-1,0-1.7,0.8-2.3,1.7V256.8z"/>
				<path class="st10" d="M212.7,250.3c0-2-0.8-2.5-1.8-2.5c-1.4,0-1.9,1.2-2.1,1.9c-0.2,0.6-0.6,1-1.6,1s-1.3-0.6-1.3-1.2
					c0-0.9,0.9-2.8,5.2-2.8c2.2,0,5.1,0.3,5.1,4.3v5.5c0,1.3,0.3,1.8,0.8,1.8c0.2,0,0.5-0.1,0.7-0.2l0.2,1c-0.7,0.3-1.4,0.4-2.6,0.4
					c-1.5,0-2.1-0.4-2.5-1.3h-0.1c-0.8,0.8-1.8,1.5-3.8,1.5c-1.7,0-3.6-1-3.6-3.3c0-1.3,0.5-2.3,1.8-3.1c0.9-0.6,2.2-1.1,3.9-1.5
					l1.7-0.4V250.3z M212.7,252.5c-2.1,0.7-3.6,1.6-3.6,3.4c0,1.5,0.7,2.1,1.7,2.1c0.9,0,1.5-0.6,1.9-1V252.5z"/>
				<path class="st10" d="M219.9,255.5c0.6,2.3,1.7,3.1,3.1,3.1c1.8,0,2.1-1.2,2.1-1.8c0-0.4-0.1-0.8-0.4-1.1
					c-0.4-0.5-1-0.8-2.2-1.5c-1-0.7-1.9-1.2-2.5-1.9c-0.5-0.6-0.9-1.3-0.9-2.2c0-1.9,1.9-3.3,5-3.3c1.6,0,2.7,0.3,3.5,0.5
					c0.1,0.8,0.2,1.6,0.5,3l-1.1,0.2c-0.4-1.9-1.1-2.6-2.6-2.6c-0.9,0-1.9,0.4-1.9,1.4c0,0.5,0.4,1,1,1.5c0.7,0.4,1.6,0.9,2.3,1.4
					c1,0.6,3,1.8,3,3.8s-1.7,3.8-5.3,3.8c-1.8,0-3.1-0.3-4.1-0.7c-0.1-1.1-0.3-2-0.5-3.3L219.9,255.5z"/>
				<path class="st10" d="M230.2,252.5h5.1v1.6h-5.1V252.5z"/>
				<path class="st10" d="M242.1,258.4c0,4.2-0.7,7.6-5.2,7.6c-2.7,0-3.9-1.5-3.9-2.6c0-0.7,0.5-1.2,1.1-1.2c0.9,0,1.2,0.6,1.6,1.4
					c0.4,0.9,0.7,1.3,1.2,1.3c1.4,0,1.6-2.5,1.6-5.8v-8.3c0-1.8-0.1-1.9-1.6-1.9v-1c1.6-0.1,3.1-0.5,4.8-1.2l0.4,0.2V258.4z
					 M242.2,243.4c0,1.2-0.9,2.1-2,2.1c-1.1,0-2-0.9-2-2.1c0-1.2,0.9-2.1,2-2.1C241.3,241.2,242.2,242.2,242.2,243.4z"/>
				<path class="st10" d="M252.1,250.3c0-2-0.8-2.5-1.8-2.5c-1.4,0-1.9,1.2-2.1,1.9c-0.2,0.6-0.6,1-1.6,1s-1.3-0.6-1.3-1.2
					c0-0.9,0.9-2.8,5.2-2.8c2.2,0,5.1,0.3,5.1,4.3v5.5c0,1.3,0.3,1.8,0.8,1.8c0.2,0,0.5-0.1,0.7-0.2l0.2,1c-0.7,0.3-1.4,0.4-2.6,0.4
					c-1.5,0-2.1-0.4-2.5-1.3h-0.1c-0.8,0.8-1.8,1.5-3.8,1.5c-1.7,0-3.6-1-3.6-3.3c0-1.3,0.5-2.3,1.8-3.1c0.9-0.6,2.2-1.1,3.9-1.5
					l1.7-0.4V250.3z M252.1,252.5c-2.1,0.7-3.6,1.6-3.6,3.4c0,1.5,0.7,2.1,1.7,2.1c0.9,0,1.5-0.6,1.9-1V252.5z"/>
				<path class="st10" d="M263.3,258.4v4.3c0,1.7,0.1,1.9,1.4,1.9v1h-6.4v-1c1.3,0,1.5-0.2,1.5-1.9v-12c0-1.7-0.1-1.9-1.5-1.9v-1
					c1.2-0.1,3-0.6,4.5-1.2l0.4,0.2l0.1,1.5h0c0.9-1.1,1.9-1.7,3.5-1.7c2.7,0,4.9,2.1,4.9,6.4c0,4.7-2.2,6.6-5.2,6.6
					C265,259.7,264,259.2,263.3,258.4L263.3,258.4z M263.3,256.8c0.6,0.9,1.4,1.5,2.2,1.5c2.2,0,2.3-3.6,2.3-5.3c0-1,0-4.9-2.3-4.9
					c-1,0-1.7,0.8-2.3,1.7V256.8z"/>
				<path class="st10" d="M280.6,250.3c0-2-0.8-2.5-1.8-2.5c-1.4,0-1.9,1.2-2.1,1.9c-0.2,0.6-0.6,1-1.6,1s-1.3-0.6-1.3-1.2
					c0-0.9,0.9-2.8,5.2-2.8c2.2,0,5.1,0.3,5.1,4.3v5.5c0,1.3,0.3,1.8,0.8,1.8c0.2,0,0.5-0.1,0.7-0.2l0.2,1c-0.7,0.3-1.4,0.4-2.6,0.4
					c-1.5,0-2.1-0.4-2.5-1.3h-0.1c-0.8,0.8-1.8,1.5-3.8,1.5c-1.7,0-3.6-1-3.6-3.3c0-1.3,0.5-2.3,1.8-3.1c0.9-0.6,2.2-1.1,3.9-1.5
					l1.7-0.4V250.3z M280.6,252.5c-2.1,0.7-3.6,1.6-3.6,3.4c0,1.5,0.7,2.1,1.7,2.1c0.9,0,1.5-0.6,1.9-1V252.5z"/>
				<path class="st10" d="M291.9,248.8c1-1.3,2.4-2.1,4-2.1c2.9,0,3.8,1.6,3.8,4v5.7c0,1.6,0.1,1.9,1.2,1.9v1H295v-1
					c1,0,1.1-0.2,1.1-2v-5.5c0-1.3-0.2-2.6-1.6-2.6c-0.8,0-1.7,0.8-2.6,2.1v6.1c0,1.8,0.1,2,1.1,2v1h-6.1v-1c1.3,0,1.5-0.2,1.5-2
					v-5.5c0-1.8-0.2-2-1.5-2v-1c1.3-0.1,3-0.5,4.4-1.2l0.5,0.2L291.9,248.8L291.9,248.8z"/>
				<path class="st10" d="M305.9,257.8c0,1-0.8,1.9-1.8,1.9c-1.1,0-1.9-0.9-1.9-1.9c0-1,0.8-1.9,1.9-1.9
					C305.2,256,305.9,256.9,305.9,257.8z"/>
				<path class="st10" d="M318.4,256.9c-1.2,2-2.8,2.8-4.7,2.8c-1.9,0-3.2-0.5-4.2-1.5c-1.2-1.2-1.8-3-1.8-5.1
					c0-4.1,2.5-6.4,6.2-6.4c2.7,0,4.2,1.5,4.2,2.7c0,0.8-0.4,1.3-1.1,1.3c-0.9,0-1.3-0.7-1.6-1.5c-0.3-0.9-0.7-1.4-1.5-1.4
					c-1.4,0-2.5,1.7-2.5,5.2c0,1.7,0.3,3.1,0.8,4c0.5,0.9,1.3,1.3,2.1,1.3c1.3,0,2.2-0.7,3-2L318.4,256.9z"/>
				<path class="st10" d="M319.8,253.1c0-4.1,2.2-6.4,6.3-6.4c4.4,0,6.3,2.5,6.3,6.4c0,3.5-1.3,6.6-6.3,6.6
					C321.1,259.7,319.8,256.7,319.8,253.1z M326,247.8c-1.9,0-2.5,2.2-2.5,5.4c0,2.2,0.3,3.6,0.8,4.4c0.4,0.6,1,0.9,1.7,0.9
					c0.7,0,1.3-0.3,1.7-0.9c0.5-0.8,0.9-2.2,0.9-4.4c0-2.1-0.3-3.6-0.8-4.4C327.3,248.1,326.8,247.8,326,247.8L326,247.8z"/>
				<path class="st10" d="M346.2,248.7c0.9-1,2.1-2,4-2c1.6,0,3.5,0.7,3.5,4.3v5.5c0,1.7,0.2,1.9,1.2,1.9v1H349v-1
					c1,0,1.1-0.2,1.1-1.8v-5.3c0-1.2-0.1-2.9-1.4-2.9c-0.9,0-1.6,0.7-2.4,1.9v6.3c0,1.8,0.1,1.9,1.1,1.9v1h-5.9v-1
					c1,0,1.1-0.2,1.1-1.8v-5.3c0-1.1,0-3-1.4-3c-0.7,0-1.5,0.7-2.4,1.9v6.3c0,1.8,0.1,1.9,1.1,1.9v1h-6.2v-1c1.4,0,1.5-0.2,1.5-2
					v-5.5c0-1.7-0.1-2-1.5-1.9v-1c1.3-0.1,3-0.5,4.5-1.2l0.4,0.2l0.1,1.7h0c0.9-1,2.2-1.9,3.8-1.9
					C344.9,246.7,345.8,248,346.2,248.7L346.2,248.7z"/>
				<path class="st10" d="M364.3,240.4l-6.8,19.3h-1.8l6.8-19.3H364.3z"/>
			</g>
		</g>
		<g>
			<g>
				<path class="st11" d="M878.7,266.1H576.4c-2.6,0-4.7-2.1-4.7-4.7v-52.3c0-2.6,2.1-4.7,4.7-4.7h302.3c2.6,0,4.7,2.1,4.7,4.7v52.3
					C883.4,264,881.3,266.1,878.7,266.1z"/>
			</g>
			<g>
				<g>
					<path class="st12" d="M703.5,183.3h-62.1c-6.8,0-12.2-5.5-12.2-12.2V109c0-6.8,5.5-12.2,12.2-12.2h62.1
						c6.8,0,12.2,5.5,12.2,12.2v62.1C715.8,177.8,710.3,183.3,703.5,183.3z"/>
					<path class="st12" d="M820.3,183.3h-60.5c-7.2,0-13-5.8-13-13v-60.5c0-7.2,5.8-13,13-13h60.5c7.2,0,13,5.8,13,13v60.5
						C833.3,177.5,827.5,183.3,820.3,183.3z"/>
					<path class="st12" d="M937.8,183.3h-60.5c-7.2,0-13-5.8-13-13v-60.5c0-7.2,5.8-13,13-13h60.5c7.2,0,13,5.8,13,13v60.5
						C950.8,177.5,945,183.3,937.8,183.3z"/>
					<path class="st13" d="M635.2,113.8c0-1.6,1.3-2.9,2.9-2.9h5.6c2.7,0,5.1,1.6,6.2,3.9h50.3c3.2,0,5.6,3.1,4.7,6.2l-5,18.6
						c-1,3.8-4.5,6.5-8.5,6.5h-35.3l0.7,3.5c0.3,1.4,1.5,2.4,2.9,2.4h35.3c1.6,0,2.9,1.3,2.9,2.9c0,1.6-1.3,2.9-2.9,2.9h-35.3
						c-4.2,0-7.9-3-8.6-7.2l-6.3-33.1c-0.1-0.5-0.5-0.8-1-0.8h-5.6C636.5,116.7,635.2,115.4,635.2,113.8z M650.9,167.6
						c0-3.2,2.6-5.9,5.9-5.9c3.2,0,5.9,2.6,5.9,5.9c0,3.2-2.6,5.9-5.9,5.9C653.5,173.4,650.9,170.8,650.9,167.6L650.9,167.6z
						 M692,161.7c3.2,0,5.9,2.6,5.9,5.9c0,3.2-2.6,5.9-5.9,5.9l0,0c-3.2,0-5.9-2.6-5.9-5.9C686.1,164.3,688.7,161.7,692,161.7z"/>
					<path class="st13" d="M772.8,122.6h6.1v11.7h-13l3.5-9.3C769.9,123.5,771.3,122.6,772.8,122.6z M784.5,134.3v-11.7h9.4
						c1.1,0,2.2,0.5,2.9,1.5l7.8,10.3H784.5z M814.1,134.4l-11.6-15.3c-2.1-2.8-5.3-4.4-8.7-4.4h-21.1c-4.5,0-8.6,2.9-10.3,7.4
						l-4.8,12.7c-2.8,1.1-4.7,4-4.7,7.3v13.7c0,2.2,1.7,3.9,3.7,3.9h3.9c0.9,5.6,5.5,9.8,11,9.8s10.1-4.2,11-9.8h15.1
						c0.9,5.6,5.5,9.8,11,9.8s10.1-4.2,11-9.8h3.9c2,0,3.7-1.7,3.7-3.9v-5.9C827.1,142,821.4,135.4,814.1,134.4z M803.3,155.8
						c1-3.1,4.1-4.7,7-3.7s4.5,4.4,3.5,7.4c0,0.1,0,0.1-0.1,0.2c-1,3.1-4.1,4.7-7,3.7s-4.5-4.4-3.5-7.4
						C803.3,155.9,803.3,155.9,803.3,155.8z M771.5,151.9c3.1,0,5.6,2.6,5.6,5.9c0,3.2-2.5,5.9-5.6,5.9s-5.6-2.6-5.6-5.9
						C766,154.5,768.4,151.9,771.5,151.9z"/>
					<path class="st13" d="M896.6,112.4c0-2.2,1.7-3.9,3.9-3.9h15.7c2.2,0,3.9,1.7,3.9,3.9v3.9h5.9c3.2,0,5.9,2.6,5.9,5.9v15.7
						l5.4,1.8c2.8,0.9,3.6,4.6,1.4,6.6l-12.4,11.3c-2,1.1-4.2,1.8-6.2,1.8c-2.4,0-5-0.9-7.2-2.5c-2.7-1.9-6.3-1.9-9,0
						c-2.1,1.4-4.6,2.5-7.2,2.5c-2,0-4.2-0.7-6.2-1.8l-12.3-11.3c-2.2-2-1.4-5.6,1.4-6.6l5.4-1.8v-15.7c0-3.2,2.6-5.9,5.9-5.9h5.9
						V112.4z M892.7,135.2l13.2-4.4c1.6-0.5,3.3-0.5,5,0l13.2,4.4v-11.1h-31.3V135.2z M910.6,160.1c2.8,1.9,6.1,3.2,9.5,3.2
						c3.3,0,6.8-1.3,9.5-3.2l0,0c1.5-1,3.4-1,4.8,0.2c1.8,1.5,4,2.6,6.2,3.1c2.1,0.5,3.4,2.6,2.9,4.7c-0.5,2.1-2.6,3.4-4.7,2.9
						c-3-0.7-5.5-2-7.1-3.1c-3.5,1.9-7.5,3.2-11.6,3.2c-3.9,0-7.4-1.2-9.8-2.3c-0.7-0.3-1.4-0.6-1.9-0.9c-0.6,0.3-1.2,0.6-1.9,0.9
						c-2.4,1.1-5.9,2.3-9.8,2.3c-4,0-8-1.3-11.6-3.2c-1.6,1-4.1,2.4-7.1,3.1c-2.1,0.5-4.2-0.8-4.7-2.9c-0.5-2.1,0.8-4.2,2.9-4.7
						c2.2-0.5,4.4-1.6,6.2-3.1c1.4-1.1,3.3-1.2,4.8-0.2l0,0c2.7,1.9,6.2,3.2,9.5,3.2c3.4,0,6.7-1.3,9.5-3.2
						C907.5,159.1,909.3,159.1,910.6,160.1z"/>
					<polygon class="st11" points="726.2,148.6 726.2,130.6 736.5,139.6 					"/>
					<polygon class="st11" points="843.7,151.1 843.7,133.1 853.9,142.1 					"/>
					<g>
						<path class="st14" d="M702.2,182.9h-60.5c-7.2,0-13-5.8-13-13v-60.5c0-7.2,5.8-13,13-13h60.5c7.2,0,13,5.8,13,13v60.5
							C715.2,177,709.3,182.9,702.2,182.9z"/>
						<path class="st14" d="M819.7,182.9h-60.5c-7.2,0-13-5.8-13-13v-60.5c0-7.2,5.8-13,13-13h60.5c7.2,0,13,5.8,13,13v60.5
							C832.7,177,826.9,182.9,819.7,182.9z"/>
						<path class="st14" d="M937.2,182.9h-60.5c-7.2,0-13-5.8-13-13v-60.5c0-7.2,5.8-13,13-13h60.5c7.2,0,13,5.8,13,13v60.5
							C950.2,177,944.4,182.9,937.2,182.9z"/>
					</g>
					<polygon class="st11" points="605.5,148.6 605.5,130.6 615.8,139.6 					"/>
				</g>
			</g>
		</g>
		<g>
			<path class="st11" d="M528.3,136.9h-3.9v-7h-4.8v7h-3.9v-17h3.9v6.6h4.8v-6.6h3.9V136.9z"/>
			<path class="st11" d="M542.2,130.7c0,4.8-3.1,6.5-5.8,6.5c-3.4,0-5.8-2.4-5.8-6.4c0-4.2,2.5-6.5,5.9-6.5
				C540,124.3,542.2,126.9,542.2,130.7z M536.4,127.1c-1.5,0-1.9,1.9-1.9,3.6c0,2.1,0.6,3.6,1.9,3.6c1.3,0,1.8-1.7,1.8-3.6
				C538.2,128.9,537.7,127.1,536.4,127.1z"/>
			<path class="st11" d="M560.5,124.5l-3.5,12.4h-3.5l-0.9-4c-0.3-1.2-0.5-2.4-0.7-3.9h-0.1c-0.2,1.5-0.4,2.7-0.7,3.9l-1.1,4h-3.5
				l-3.3-12.4h4l0.8,5c0.2,1.3,0.4,2.6,0.5,3.9h0.1c0.2-1.3,0.5-2.7,0.8-3.9l1.1-5.1h3l1.1,4.9c0.3,1.4,0.6,2.7,0.7,4h0.1
				c0.1-1.3,0.3-2.7,0.5-4l0.8-4.9H560.5z"/>
			<path class="st11" d="M567.2,122.3l3.8-1.1v3.3h2.6v2.8h-2.6v4.7c0,1.5,0.5,2,1.4,2c0.4,0,0.7,0,1-0.1l0,3
				c-0.5,0.2-1.3,0.3-2.4,0.3c-3.8,0-3.9-3.3-3.9-4.7v-5.1h-1.5v-2.8h1.5V122.3z"/>
			<path class="st11" d="M586.5,130.7c0,4.8-3.1,6.5-5.8,6.5c-3.4,0-5.8-2.4-5.8-6.4c0-4.2,2.5-6.5,5.9-6.5
				C584.3,124.3,586.5,126.9,586.5,130.7z M580.7,127.1c-1.5,0-1.9,1.9-1.9,3.6c0,2.1,0.6,3.6,1.9,3.6c1.3,0,1.8-1.7,1.8-3.6
				C582.6,128.9,582,127.1,580.7,127.1z"/>
			<path class="st11" d="M522.6,155.9c0,1.5,0.1,2.9,0.1,4h-3.3l-0.2-1.5h-0.1c-0.5,0.8-1.7,1.8-3.5,1.8c-2.5,0-3.9-1.7-3.9-5.3
				v-7.4h3.9v6.8c0,1.7,0.5,2.6,1.5,2.6c0.8,0,1.6-0.6,1.6-1.9v-7.6h3.9V155.9z"/>
			<path class="st11" d="M532.1,150.7c-0.5-0.3-1.4-0.6-2.3-0.6c-0.9,0-1.3,0.4-1.3,0.9c0,0.5,0.4,0.8,1.7,1.4c2.2,0.9,3,2.2,3,3.8
				c0,2.6-1.9,4-5.1,4c-1.4,0-2.8-0.3-3.6-0.8l0.7-2.8c0.6,0.4,1.9,0.8,2.9,0.8c1,0,1.4-0.3,1.4-0.9s-0.4-0.9-1.6-1.4
				c-2.4-1-3.1-2.4-3.1-3.7c0-2.3,1.8-4.1,4.8-4.1c1.3,0,2.4,0.3,3.1,0.7L532.1,150.7z"/>
			<path class="st11" d="M544.8,159.5c-1.1,0.5-2.6,0.7-4.1,0.7c-3.9,0-6.1-2.3-6.1-6.2c0-3.5,2.1-6.6,5.8-6.6c2.9,0,5,2,5,6.2
				c0,0.6,0,1.2-0.1,1.6h-7c0.1,1.5,1.4,2.2,3,2.2c1.1,0,2.1-0.2,3-0.5L544.8,159.5z M541.9,152.4c0-1.1-0.4-2.5-1.7-2.5
				c-1.3,0-1.8,1.5-1.9,2.5H541.9z"/>
			<path class="st11" d="M552.3,143.2c1.1-0.2,2.6-0.4,4.6-0.4c2.2,0,3.9,0.4,5,1.3c1.1,0.9,1.7,2.3,1.7,3.9c0,4.7-3.9,5.8-6.5,5.8
				c-0.4,0-0.7,0-1,0v6.1h-3.9V143.2z M556.2,150.8c0.2,0,0.5,0,0.9,0c1.8,0,2.8-1.1,2.8-2.6c0-1.6-0.9-2.4-2.5-2.4
				c-0.5,0-0.9,0.1-1.2,0.1V150.8z"/>
			<path class="st11" d="M578.3,159.9h-4l-1-4h-3.9l-0.9,4h-3.9l4.5-17h4.9L578.3,159.9z M572.9,153l-0.7-3.4
				c-0.2-1-0.5-2.5-0.7-3.6h0c-0.2,1-0.5,2.6-0.7,3.6l-0.8,3.4H572.9z"/>
			<path class="st11" d="M588.9,146.6c-0.6-0.3-1.6-0.7-3-0.7c-1.5,0-2.2,0.7-2.2,1.6c0,0.9,0.7,1.4,2.8,2.4c2.7,1.2,3.8,2.9,3.8,5
				c0,3.1-2.4,5.3-6.5,5.3c-1.7,0-3.4-0.4-4.2-0.9l0.7-3.3c0.9,0.5,2.3,0.9,3.7,0.9c1.6,0,2.4-0.7,2.4-1.7c0-1-0.8-1.6-2.5-2.4
				c-2.7-1.2-4.1-2.9-4.1-4.9c0-2.9,2.2-5.1,6.1-5.1c1.6,0,2.9,0.4,3.7,0.7L588.9,146.6z"/>
		</g>
		<g>
			<g>
				<path class="st11" d="M660.6,122.8c1.2,0.3,1.9,1.2,1.9,2.4c0,0.8-0.3,1.5-0.9,2.1c-0.7,0.6-1.8,1-3.8,1c-1,0-1.7-0.1-2.2-0.1
					v-9.9c0.6-0.1,1.7-0.2,2.7-0.2c1.2,0,2.1,0.1,2.8,0.6c0.7,0.4,1,1.1,1,1.9C662.2,121.5,661.7,122.3,660.6,122.8L660.6,122.8z
					 M658.4,122.1c1,0,1.5-0.5,1.5-1.2c0-0.8-0.6-1.2-1.3-1.2c-0.4,0-0.6,0-0.7,0.1v2.3H658.4z M657.8,126.5c0.2,0,0.4,0,0.6,0
					c0.9,0,1.6-0.4,1.6-1.4c0-1-0.9-1.4-1.7-1.4h-0.6V126.5z"/>
				<path class="st11" d="M670.2,125.8c0,0.9,0,1.7,0.1,2.4h-2l-0.1-0.9h0c-0.3,0.5-1,1.1-2,1.1c-1.5,0-2.3-1-2.3-3.1v-4.4h2.3v4
					c0,1,0.3,1.6,0.9,1.6c0.5,0,0.9-0.4,0.9-1.1v-4.5h2.3V125.8z"/>
				<path class="st11" d="M678,120.9l-1.6,5.2c-0.8,2.2-1.4,3.5-2.2,4.3c-0.7,0.7-1.6,1-2,1.1l-0.6-2c0.9-0.2,1.9-1.1,1.9-1.6
					c0-0.1,0-0.2-0.1-0.3l-2.4-6.7h2.5l0.9,3.6c0.1,0.4,0.2,0.9,0.3,1.3h0c0.1-0.4,0.2-0.9,0.2-1.3l0.7-3.6H678z"/>
				<path class="st11" d="M687.3,126.4c0,0.7,0,1.3,0.1,1.7h-2.1l-0.1-0.7h0c-0.4,0.6-1.1,0.8-1.9,0.8c-1.3,0-2.2-1-2.2-2.2
					c0-1.9,1.7-2.8,3.9-2.8c0-0.6-0.2-1-1.2-1c-0.7,0-1.3,0.2-1.8,0.5l-0.4-1.5c0.5-0.3,1.4-0.6,2.7-0.6c2.4,0,3,1.5,3,3.2V126.4z
					 M685.1,124.7c-0.9,0-1.8,0.3-1.8,1.1c0,0.6,0.4,0.9,0.8,0.9c0.5,0,1-0.3,1-1V124.7z"/>
				<path class="st11" d="M642.7,141.7c-0.3-0.2-0.8-0.4-1.4-0.4c-0.5,0-0.8,0.2-0.8,0.5c0,0.3,0.2,0.5,1,0.8
					c1.3,0.5,1.8,1.3,1.8,2.2c0,1.5-1.1,2.4-3,2.4c-0.8,0-1.6-0.2-2.1-0.5l0.4-1.6c0.4,0.2,1.1,0.5,1.7,0.5c0.6,0,0.8-0.2,0.8-0.5
					c0-0.4-0.2-0.5-0.9-0.8c-1.4-0.6-1.8-1.4-1.8-2.2c0-1.4,1.1-2.4,2.8-2.4c0.8,0,1.4,0.2,1.8,0.4L642.7,141.7z"/>
				<path class="st11" d="M646.6,140.8c0.4-0.7,1.1-1.1,2-1.1c1.6,0,2.7,1.6,2.7,3.7c0,2.7-1.5,3.9-2.9,3.9c-0.7,0-1.3-0.3-1.6-0.7
					h0v3.5h-2.3v-7.8c0-0.9,0-1.7-0.1-2.4h2L646.6,140.8L646.6,140.8z M646.9,144.2c0,0.7,0.4,1.3,1,1.3c0.8,0,1.2-0.8,1.2-2
					c0-1.2-0.4-2-1.2-2c-0.5,0-1,0.5-1,1.3V144.2z"/>
				<path class="st11" d="M658.4,145.4c0,0.7,0,1.3,0.1,1.7h-2.1l-0.1-0.7h0c-0.4,0.6-1.1,0.8-1.9,0.8c-1.3,0-2.2-1-2.2-2.2
					c0-1.9,1.7-2.8,3.9-2.8c0-0.6-0.2-1-1.2-1c-0.7,0-1.3,0.2-1.8,0.5l-0.4-1.5c0.5-0.3,1.4-0.6,2.7-0.6c2.4,0,3,1.5,3,3.2V145.4z
					 M656.2,143.7c-0.9,0-1.8,0.3-1.8,1.1c0,0.6,0.4,0.9,0.8,0.9c0.5,0,1-0.3,1-1V143.7z"/>
				<path class="st11" d="M664.9,147c-0.3,0.1-1,0.3-1.7,0.3c-2.2,0-3.6-1.4-3.6-3.7c0-2.2,1.4-3.9,3.9-3.9c0.6,0,1.1,0.1,1.4,0.2
					l-0.3,1.7c-0.2-0.1-0.5-0.2-1-0.2c-1,0-1.7,0.8-1.7,2c0,1.3,0.7,2,1.7,2c0.4,0,0.7-0.1,1-0.2L664.9,147z"/>
				<path class="st11" d="M671.7,146.9c-0.7,0.3-1.5,0.4-2.4,0.4c-2.3,0-3.6-1.4-3.6-3.7c0-2.1,1.2-3.9,3.4-3.9c1.7,0,3,1.2,3,3.7
					c0,0.4,0,0.7-0.1,1h-4.1c0.1,0.9,0.8,1.3,1.8,1.3c0.7,0,1.2-0.1,1.8-0.3L671.7,146.9z M669.9,142.8c0-0.7-0.2-1.5-1-1.5
					c-0.8,0-1.1,0.9-1.1,1.5H669.9z"/>
				<path class="st11" d="M676.3,139.6c0-2.1,1.3-3,2.8-3c0.5,0,0.9,0.1,1.2,0.2l-0.1,1.8c-0.2-0.1-0.4-0.1-0.7-0.1
					c-0.9,0-0.9,0.9-0.9,1.5h1.4v1.7h-1.3v5.7h-2.3v-5.7h-1v-1.7h1V139.6z"/>
				<path class="st11" d="M685.1,141.9c-0.2,0-0.3-0.1-0.6-0.1c-0.6,0-1.1,0.3-1.3,0.9c-0.1,0.2-0.1,0.4-0.1,0.7v3.7h-2.3v-5
					c0-1,0-1.7-0.1-2.4h2l0.1,1.2h0.1c0.4-1,1.1-1.4,1.7-1.4c0.2,0,0.3,0,0.5,0V141.9z"/>
				<path class="st11" d="M692.5,143.5c0,2.8-1.8,3.8-3.4,3.8c-2,0-3.4-1.4-3.4-3.8c0-2.5,1.5-3.8,3.5-3.8
					C691.3,139.7,692.5,141.3,692.5,143.5z M689.1,141.4c-0.9,0-1.1,1.1-1.1,2.1c0,1.2,0.4,2.1,1.1,2.1c0.7,0,1.1-1,1.1-2.1
					C690.2,142.4,689.9,141.4,689.1,141.4z"/>
				<path class="st11" d="M704.1,147.2h-2.2v-4.1c0-0.9-0.2-1.5-0.8-1.5c-0.5,0-0.9,0.5-0.9,1.2v4.4h-2.2v-4.3
					c0-0.7-0.2-1.3-0.8-1.3c-0.3,0-0.9,0.3-0.9,1.2v4.4h-2.2v-5c0-0.9,0-1.7-0.1-2.3h2l0.1,0.9h0c0.3-0.5,1-1.1,2-1.1
					c0.9,0,1.5,0.4,1.8,1.1h0c0.3-0.4,0.9-1.1,2.1-1.1c1.4,0,2.2,1.1,2.2,3V147.2z"/>
				<path class="st11" d="M660.4,156.3c0.7-0.1,1.6-0.2,2.7-0.2c1.3,0,2.3,0.2,3,0.8c0.6,0.5,1,1.4,1,2.3c0,2.8-2.3,3.4-3.8,3.4
					c-0.2,0-0.4,0-0.6,0v3.6h-2.3V156.3z M662.7,160.8c0.1,0,0.3,0,0.5,0c1.1,0,1.6-0.6,1.6-1.5c0-0.9-0.6-1.4-1.5-1.4
					c-0.3,0-0.6,0-0.7,0.1V160.8z"/>
				<path class="st11" d="M675.8,166.2h-2.4l-0.6-2.3h-2.3l-0.5,2.3h-2.3l2.7-10h2.9L675.8,166.2z M672.5,162.1l-0.4-2
					c-0.1-0.6-0.3-1.5-0.4-2.1h0c-0.1,0.6-0.3,1.5-0.4,2.1l-0.5,2H672.5z"/>
				<path class="st11" d="M682,158.3c-0.4-0.2-1-0.4-1.8-0.4c-0.9,0-1.3,0.4-1.3,0.9c0,0.6,0.4,0.8,1.6,1.4c1.6,0.7,2.3,1.7,2.3,3
					c0,1.8-1.4,3.1-3.8,3.1c-1,0-2-0.3-2.5-0.5l0.4-1.9c0.5,0.3,1.4,0.5,2.2,0.5c1,0,1.4-0.4,1.4-1c0-0.6-0.5-0.9-1.5-1.4
					c-1.6-0.7-2.4-1.7-2.4-2.9c0-1.7,1.3-3,3.6-3c1,0,1.7,0.2,2.2,0.4L682,158.3z"/>
			</g>
		</g>
		<g>
			<path class="st11" d="M763.9,128.2h-5.7v-10h5.5v1.9h-3.2v2h3.1v1.9h-3.1v2.3h3.4V128.2z"/>
			<path class="st11" d="M771.6,128.2h-2.3v-4.3c0-0.8-0.2-1.3-0.9-1.3c-0.5,0-1,0.4-1,1.3v4.3h-2.3v-5c0-0.9,0-1.7-0.1-2.3h2
				l0.1,0.9h0c0.3-0.5,1-1.1,2-1.1c1.5,0,2.4,1.1,2.4,3V128.2z"/>
			<path class="st11" d="M773.5,119.5l2.3-0.6v2h1.5v1.7h-1.5v2.8c0,0.9,0.3,1.2,0.8,1.2c0.3,0,0.4,0,0.6-0.1l0,1.8
				c-0.3,0.1-0.8,0.2-1.4,0.2c-2.2,0-2.3-1.9-2.3-2.8v-3h-0.9v-1.7h0.9V119.5z"/>
			<path class="st11" d="M784.1,127.9c-0.7,0.3-1.5,0.4-2.4,0.4c-2.3,0-3.6-1.4-3.6-3.7c0-2.1,1.2-3.9,3.4-3.9c1.7,0,3,1.2,3,3.7
				c0,0.4,0,0.7-0.1,1h-4.1c0.1,0.9,0.8,1.3,1.8,1.3c0.7,0,1.2-0.1,1.8-0.3L784.1,127.9z M782.4,123.8c0-0.7-0.2-1.5-1-1.5
				c-0.8,0-1.1,0.9-1.1,1.5H782.4z"/>
			<path class="st11" d="M789.9,123c-0.2,0-0.3-0.1-0.6-0.1c-0.6,0-1.1,0.3-1.3,0.9c-0.1,0.2-0.1,0.4-0.1,0.7v3.7h-2.3v-5
				c0-1,0-1.7-0.1-2.4h2l0.1,1.2h0.1c0.4-1,1.1-1.4,1.7-1.4c0.2,0,0.3,0,0.5,0V123z"/>
			<path class="st11" d="M799.9,120.9l-1.6,5.2c-0.8,2.2-1.4,3.5-2.2,4.3c-0.7,0.7-1.6,1-2,1.1l-0.6-2c0.9-0.2,1.9-1.1,1.9-1.6
				c0-0.1,0-0.2-0.1-0.3l-2.4-6.7h2.5l0.9,3.6c0.1,0.4,0.2,0.9,0.3,1.3h0c0.1-0.4,0.2-0.9,0.2-1.3l0.7-3.6H799.9z"/>
			<path class="st11" d="M807.1,124.5c0,2.8-1.8,3.8-3.4,3.8c-2,0-3.4-1.4-3.4-3.8c0-2.5,1.5-3.8,3.5-3.8
				C805.9,120.7,807.1,122.3,807.1,124.5z M803.7,122.4c-0.9,0-1.1,1.1-1.1,2.1c0,1.2,0.4,2.1,1.1,2.1c0.7,0,1.1-1,1.1-2.1
				C804.8,123.4,804.5,122.4,803.7,122.4z"/>
			<path class="st11" d="M814.8,125.8c0,0.9,0,1.7,0.1,2.4h-2l-0.1-0.9h0c-0.3,0.5-1,1.1-2,1.1c-1.5,0-2.3-1-2.3-3.1v-4.4h2.3v4
				c0,1,0.3,1.6,0.9,1.6c0.5,0,0.9-0.4,0.9-1.1v-4.5h2.3V125.8z"/>
			<path class="st11" d="M816.7,119.5l2.3-0.6v2h1.5v1.7H819v2.8c0,0.9,0.3,1.2,0.8,1.2c0.3,0,0.4,0,0.6-0.1l0,1.8
				c-0.3,0.1-0.8,0.2-1.4,0.2c-2.2,0-2.3-1.9-2.3-2.8v-3h-0.9v-1.7h0.9V119.5z"/>
			<path class="st11" d="M770,139.9l-2.4,7.3h-2.2l-2.4-7.3h2.5l0.7,3.2c0.1,0.6,0.2,1.2,0.4,1.9h0c0.1-0.7,0.2-1.2,0.3-1.9l0.7-3.2
				H770z"/>
			<path class="st11" d="M776.6,146.9c-0.7,0.3-1.5,0.4-2.4,0.4c-2.3,0-3.6-1.4-3.6-3.7c0-2.1,1.2-3.9,3.4-3.9c1.7,0,3,1.2,3,3.7
				c0,0.4,0,0.7-0.1,1h-4.1c0.1,0.9,0.8,1.3,1.8,1.3c0.7,0,1.2-0.1,1.8-0.3L776.6,146.9z M774.9,142.8c0-0.7-0.2-1.5-1-1.5
				c-0.8,0-1.1,0.9-1.1,1.5H774.9z"/>
			<path class="st11" d="M784.6,147.2h-2.3V143c0-0.8-0.2-1.4-0.9-1.4c-0.3,0-1,0.1-1,1.2v4.4h-2.3v-10.5h2.3v4h0
				c0.6-0.7,1.3-0.9,1.9-0.9c1.5,0,2.3,1.1,2.3,3.2V147.2z"/>
			<path class="st11" d="M787.3,139.1c-0.7,0-1.2-0.5-1.2-1.2c0-0.7,0.5-1.2,1.2-1.2c0.7,0,1.2,0.5,1.2,1.2
				C788.5,138.6,788,139.1,787.3,139.1z M788.4,147.2h-2.3v-7.3h2.3V147.2z"/>
			<path class="st11" d="M794.9,147c-0.3,0.1-1,0.3-1.7,0.3c-2.2,0-3.6-1.4-3.6-3.7c0-2.2,1.4-3.9,3.9-3.9c0.6,0,1.1,0.1,1.4,0.2
				l-0.3,1.7c-0.2-0.1-0.5-0.2-1-0.2c-1,0-1.7,0.8-1.7,2c0,1.3,0.7,2,1.7,2c0.4,0,0.7-0.1,1-0.2L794.9,147z"/>
			<path class="st11" d="M798.3,147.2H796v-10.5h2.3V147.2z"/>
			<path class="st11" d="M805.6,146.9c-0.7,0.3-1.5,0.4-2.4,0.4c-2.3,0-3.6-1.4-3.6-3.7c0-2.1,1.2-3.9,3.4-3.9c1.7,0,3,1.2,3,3.7
				c0,0.4,0,0.7-0.1,1h-4.1c0.1,0.9,0.8,1.3,1.8,1.3c0.7,0,1.2-0.1,1.8-0.3L805.6,146.9z M803.8,142.8c0-0.7-0.2-1.5-1-1.5
				c-0.8,0-1.1,0.9-1.1,1.5H803.8z"/>
			<path class="st11" d="M806.8,136.9h1.9l-0.3,4h-1.2L806.8,136.9z"/>
			<path class="st11" d="M814,141.7c-0.3-0.2-0.8-0.4-1.4-0.4c-0.5,0-0.8,0.2-0.8,0.5c0,0.3,0.2,0.5,1,0.8c1.3,0.5,1.8,1.3,1.8,2.2
				c0,1.5-1.1,2.4-3,2.4c-0.8,0-1.6-0.2-2.1-0.5l0.4-1.6c0.4,0.2,1.1,0.5,1.7,0.5c0.6,0,0.8-0.2,0.8-0.5c0-0.4-0.2-0.5-0.9-0.8
				c-1.4-0.6-1.8-1.4-1.8-2.2c0-1.4,1.1-2.4,2.8-2.4c0.8,0,1.4,0.2,1.8,0.4L814,141.7z"/>
			<path class="st11" d="M754.1,158.1c-0.7,0-1.2-0.5-1.2-1.2c0-0.7,0.5-1.2,1.2-1.2c0.7,0,1.2,0.5,1.2,1.2
				C755.3,157.6,754.8,158.1,754.1,158.1z M755.3,166.2H753v-7.3h2.3V166.2z"/>
			<path class="st11" d="M763.3,166.2H761v-4.3c0-0.8-0.2-1.3-0.9-1.3c-0.5,0-1,0.4-1,1.3v4.3h-2.3v-5c0-0.9,0-1.7-0.1-2.3h2
				l0.1,0.9h0c0.3-0.5,1-1.1,2-1.1c1.5,0,2.4,1.1,2.4,3V166.2z"/>
			<path class="st11" d="M765.1,158.6c0-2.1,1.3-3,2.8-3c0.5,0,0.9,0.1,1.2,0.2l-0.1,1.8c-0.2-0.1-0.4-0.1-0.7-0.1
				c-0.9,0-0.9,0.9-0.9,1.5h1.4v1.7h-1.3v5.7h-2.3v-5.7h-1v-1.7h1V158.6z"/>
			<path class="st11" d="M776.2,162.5c0,2.8-1.8,3.8-3.4,3.8c-2,0-3.4-1.4-3.4-3.8c0-2.5,1.5-3.8,3.5-3.8
				C774.9,158.7,776.2,160.3,776.2,162.5z M772.8,160.4c-0.9,0-1.1,1.1-1.1,2.1c0,1.2,0.4,2.1,1.1,2.1c0.7,0,1.1-1,1.1-2.1
				C773.9,161.4,773.6,160.4,772.8,160.4z"/>
			<path class="st11" d="M781.7,161c-0.2,0-0.3-0.1-0.6-0.1c-0.6,0-1.1,0.3-1.3,0.9c-0.1,0.2-0.1,0.4-0.1,0.7v3.7h-2.3v-5
				c0-1,0-1.7-0.1-2.4h2l0.1,1.2h0.1c0.4-1,1.1-1.4,1.7-1.4c0.2,0,0.3,0,0.5,0V161z"/>
			<path class="st11" d="M792.9,166.2h-2.2v-4.1c0-0.9-0.2-1.5-0.8-1.5c-0.5,0-0.9,0.5-0.9,1.2v4.4h-2.2v-4.3c0-0.7-0.2-1.3-0.8-1.3
				c-0.3,0-0.9,0.3-0.9,1.2v4.4h-2.2v-5c0-0.9,0-1.7-0.1-2.3h2l0.1,0.9h0c0.3-0.5,1-1.1,2-1.1c0.9,0,1.5,0.4,1.8,1.1h0
				c0.3-0.4,0.9-1.1,2.1-1.1c1.4,0,2.2,1.1,2.2,3V166.2z"/>
			<path class="st11" d="M800.2,164.5c0,0.7,0,1.3,0.1,1.7h-2.1l-0.1-0.7h0c-0.4,0.6-1.1,0.8-1.9,0.8c-1.3,0-2.2-1-2.2-2.2
				c0-1.9,1.7-2.8,3.9-2.8c0-0.6-0.2-1-1.2-1c-0.7,0-1.3,0.2-1.8,0.5l-0.4-1.5c0.5-0.3,1.4-0.6,2.7-0.6c2.4,0,3,1.5,3,3.2V164.5z
				 M798,162.7c-0.9,0-1.8,0.3-1.8,1.1c0,0.6,0.4,0.9,0.8,0.9c0.5,0,1-0.3,1-1V162.7z"/>
			<path class="st11" d="M802.1,157.5l2.3-0.6v2h1.5v1.7h-1.5v2.8c0,0.9,0.3,1.2,0.8,1.2c0.3,0,0.4,0,0.6-0.1l0,1.8
				c-0.3,0.1-0.8,0.2-1.4,0.2c-2.2,0-2.3-1.9-2.3-2.8v-3h-0.9v-1.7h0.9V157.5z"/>
			<path class="st11" d="M808.2,158.1c-0.7,0-1.2-0.5-1.2-1.2c0-0.7,0.5-1.2,1.2-1.2c0.7,0,1.2,0.5,1.2,1.2
				C809.3,157.6,808.8,158.1,808.2,158.1z M809.3,166.2H807v-7.3h2.3V166.2z"/>
			<path class="st11" d="M817.3,162.5c0,2.8-1.8,3.8-3.4,3.8c-2,0-3.4-1.4-3.4-3.8c0-2.5,1.5-3.8,3.5-3.8
				C816.1,158.7,817.3,160.3,817.3,162.5z M813.9,160.4c-0.9,0-1.1,1.1-1.1,2.1c0,1.2,0.4,2.1,1.1,2.1c0.7,0,1.1-1,1.1-2.1
				C815,161.4,814.7,160.4,813.9,160.4z"/>
			<path class="st11" d="M825.1,166.2h-2.3v-4.3c0-0.8-0.2-1.3-0.9-1.3c-0.5,0-1,0.4-1,1.3v4.3h-2.3v-5c0-0.9,0-1.7-0.1-2.3h2
				l0.1,0.9h0c0.3-0.5,1-1.1,2-1.1c1.5,0,2.4,1.1,2.4,3V166.2z"/>
		</g>
		<g>
			<path class="st11" d="M896.7,116.9l-2.2,10h-2.4l-0.7-3.7c-0.2-0.9-0.3-2-0.4-3.2h0c-0.2,1.2-0.3,2.2-0.5,3.2l-0.8,3.7h-2.4
				l-2.1-10h2.4l0.6,3.9c0.2,1.2,0.3,2.4,0.5,3.5h0c0.2-1.2,0.4-2.3,0.6-3.5l0.7-3.9h2.2l0.7,4c0.2,1.2,0.4,2.2,0.5,3.4h0
				c0.1-1.2,0.3-2.3,0.5-3.5l0.6-3.9H896.7z"/>
			<path class="st11" d="M903.4,126.7c-0.7,0.3-1.5,0.4-2.4,0.4c-2.3,0-3.6-1.4-3.6-3.7c0-2.1,1.2-3.9,3.4-3.9c1.7,0,3,1.2,3,3.7
				c0,0.4,0,0.7-0.1,1h-4.1c0.1,0.9,0.8,1.3,1.8,1.3c0.7,0,1.2-0.1,1.8-0.3L903.4,126.7z M901.7,122.5c0-0.7-0.2-1.5-1-1.5
				c-0.8,0-1.1,0.9-1.1,1.5H901.7z"/>
			<path class="st11" d="M917.3,119.6l-2.1,7.3h-2.1l-0.6-2.4c-0.2-0.7-0.3-1.4-0.4-2.3h0c-0.1,0.9-0.3,1.6-0.4,2.3l-0.6,2.4H909
				l-2-7.3h2.4l0.5,3c0.1,0.8,0.2,1.5,0.3,2.3h0c0.1-0.8,0.3-1.6,0.5-2.3l0.7-3h1.8l0.6,2.9c0.2,0.8,0.3,1.6,0.4,2.4h0
				c0.1-0.8,0.2-1.6,0.3-2.4l0.5-2.9H917.3z"/>
			<path class="st11" d="M919.3,118.8c-0.7,0-1.2-0.5-1.2-1.2c0-0.7,0.5-1.2,1.2-1.2c0.7,0,1.2,0.5,1.2,1.2
				C920.5,118.4,920,118.8,919.3,118.8z M920.5,127h-2.3v-7.3h2.3V127z"/>
			<path class="st11" d="M924.3,127H922v-10.5h2.3V127z"/>
			<path class="st11" d="M928.2,127h-2.3v-10.5h2.3V127z"/>
			<path class="st11" d="M876.6,140.5c-0.3-0.2-0.8-0.4-1.4-0.4c-0.5,0-0.8,0.2-0.8,0.5c0,0.3,0.2,0.5,1,0.8
				c1.3,0.5,1.8,1.3,1.8,2.2c0,1.5-1.1,2.4-3,2.4c-0.8,0-1.6-0.2-2.1-0.5l0.4-1.6c0.4,0.2,1.1,0.5,1.7,0.5c0.6,0,0.8-0.2,0.8-0.5
				c0-0.4-0.2-0.5-0.9-0.8c-1.4-0.6-1.8-1.4-1.8-2.2c0-1.4,1.1-2.4,2.8-2.4c0.8,0,1.4,0.2,1.8,0.4L876.6,140.5z"/>
			<path class="st11" d="M884.1,145.7c-0.7,0.3-1.5,0.4-2.4,0.4c-2.3,0-3.6-1.4-3.6-3.7c0-2.1,1.2-3.9,3.4-3.9c1.7,0,3,1.2,3,3.7
				c0,0.4,0,0.7-0.1,1h-4.1c0.1,0.9,0.8,1.3,1.8,1.3c0.7,0,1.2-0.1,1.8-0.3L884.1,145.7z M882.4,141.5c0-0.7-0.2-1.5-1-1.5
				c-0.8,0-1.1,0.9-1.1,1.5H882.4z"/>
			<path class="st11" d="M890.6,145.8c-0.3,0.1-1,0.3-1.7,0.3c-2.2,0-3.6-1.4-3.6-3.7c0-2.2,1.4-3.9,3.9-3.9c0.6,0,1.1,0.1,1.4,0.2
				l-0.3,1.7c-0.2-0.1-0.5-0.2-1-0.2c-1,0-1.7,0.8-1.7,2c0,1.3,0.7,2,1.7,2c0.4,0,0.7-0.1,1-0.2L890.6,145.8z"/>
			<path class="st11" d="M898.1,143.6c0,0.9,0,1.7,0.1,2.4h-2l-0.1-0.9h0c-0.3,0.5-1,1.1-2,1.1c-1.5,0-2.3-1-2.3-3.1v-4.4h2.3v4
				c0,1,0.3,1.6,0.9,1.6c0.5,0,0.9-0.4,0.9-1.1v-4.5h2.3V143.6z"/>
			<path class="st11" d="M903.9,140.7c-0.2,0-0.3-0.1-0.6-0.1c-0.6,0-1.1,0.3-1.3,0.9c-0.1,0.2-0.1,0.4-0.1,0.7v3.7h-2.3v-5
				c0-1,0-1.7-0.1-2.4h2l0.1,1.2h0.1c0.4-1,1.1-1.4,1.7-1.4c0.2,0,0.3,0,0.5,0V140.7z"/>
			<path class="st11" d="M910.6,145.7c-0.7,0.3-1.5,0.4-2.4,0.4c-2.3,0-3.6-1.4-3.6-3.7c0-2.1,1.2-3.9,3.4-3.9c1.7,0,3,1.2,3,3.7
				c0,0.4,0,0.7-0.1,1h-4.1c0.1,0.9,0.8,1.3,1.8,1.3c0.7,0,1.2-0.1,1.8-0.3L910.6,145.7z M908.9,141.5c0-0.7-0.2-1.5-1-1.5
				c-0.8,0-1.1,0.9-1.1,1.5H908.9z"/>
			<path class="st11" d="M921.2,138.6l-1.6,5.2c-0.8,2.2-1.4,3.5-2.2,4.3c-0.7,0.7-1.6,1-2,1.1l-0.6-2c0.9-0.2,1.9-1.1,1.9-1.6
				c0-0.1,0-0.2-0.1-0.3l-2.4-6.7h2.5l0.9,3.6c0.1,0.4,0.2,0.9,0.3,1.3h0c0.1-0.4,0.2-0.9,0.2-1.3l0.7-3.6H921.2z"/>
			<path class="st11" d="M928.4,142.3c0,2.8-1.8,3.8-3.4,3.8c-2,0-3.4-1.4-3.4-3.8c0-2.5,1.5-3.8,3.5-3.8
				C927.2,138.5,928.4,140.1,928.4,142.3z M925,140.2c-0.9,0-1.1,1.1-1.1,2.1c0,1.2,0.4,2.1,1.1,2.1c0.7,0,1.1-1,1.1-2.1
				C926.1,141.2,925.8,140.2,925,140.2z"/>
			<path class="st11" d="M936.1,143.6c0,0.9,0,1.7,0.1,2.4h-2l-0.1-0.9h0c-0.3,0.5-1,1.1-2,1.1c-1.5,0-2.3-1-2.3-3.1v-4.4h2.3v4
				c0,1,0.3,1.6,0.9,1.6c0.5,0,0.9-0.4,0.9-1.1v-4.5h2.3V143.6z"/>
			<path class="st11" d="M941.9,140.7c-0.2,0-0.3-0.1-0.6-0.1c-0.6,0-1.1,0.3-1.3,0.9c-0.1,0.2-0.1,0.4-0.1,0.7v3.7h-2.3v-5
				c0-1,0-1.7-0.1-2.4h2l0.1,1.2h0.1c0.4-1,1.1-1.4,1.7-1.4c0.2,0,0.3,0,0.5,0V140.7z"/>
			<path class="st11" d="M894.5,159.5c-0.3-0.2-0.8-0.4-1.4-0.4c-0.5,0-0.8,0.2-0.8,0.5c0,0.3,0.2,0.5,1,0.8
				c1.3,0.5,1.8,1.3,1.8,2.2c0,1.5-1.1,2.4-3,2.4c-0.8,0-1.6-0.2-2.1-0.5l0.4-1.6c0.4,0.2,1.1,0.5,1.7,0.5c0.6,0,0.8-0.2,0.8-0.5
				c0-0.4-0.2-0.5-0.9-0.8c-1.4-0.6-1.8-1.4-1.8-2.2c0-1.4,1.1-2.4,2.8-2.4c0.8,0,1.4,0.2,1.8,0.4L894.5,159.5z"/>
			<path class="st11" d="M898.4,158.6c0.4-0.7,1.1-1.1,2-1.1c1.6,0,2.7,1.6,2.7,3.7c0,2.7-1.5,3.9-2.9,3.9c-0.7,0-1.3-0.3-1.6-0.7h0
				v3.5h-2.3v-7.8c0-0.9,0-1.7-0.1-2.4h2L898.4,158.6L898.4,158.6z M898.6,162c0,0.7,0.4,1.3,1,1.3c0.8,0,1.2-0.8,1.2-2
				c0-1.2-0.4-2-1.2-2c-0.5,0-1,0.5-1,1.3V162z"/>
			<path class="st11" d="M910.1,163.2c0,0.7,0,1.3,0.1,1.7h-2.1l-0.1-0.7h0c-0.4,0.6-1.1,0.8-1.9,0.8c-1.3,0-2.2-1-2.2-2.2
				c0-1.9,1.7-2.8,3.9-2.8c0-0.6-0.2-1-1.2-1c-0.7,0-1.3,0.2-1.8,0.5l-0.4-1.5c0.5-0.3,1.4-0.6,2.7-0.6c2.4,0,3,1.5,3,3.2V163.2z
				 M907.9,161.5c-0.9,0-1.8,0.3-1.8,1.1c0,0.6,0.4,0.9,0.8,0.9c0.5,0,1-0.3,1-1V161.5z"/>
			<path class="st11" d="M916.6,164.8c-0.3,0.1-1,0.3-1.7,0.3c-2.2,0-3.6-1.4-3.6-3.7c0-2.2,1.4-3.9,3.9-3.9c0.6,0,1.1,0.1,1.4,0.2
				l-0.3,1.7c-0.2-0.1-0.5-0.2-1-0.2c-1,0-1.7,0.8-1.7,2c0,1.3,0.7,2,1.7,2c0.4,0,0.7-0.1,1-0.2L916.6,164.8z"/>
			<path class="st11" d="M923.4,164.7c-0.7,0.3-1.5,0.4-2.4,0.4c-2.3,0-3.6-1.4-3.6-3.7c0-2.1,1.2-3.9,3.4-3.9c1.7,0,3,1.2,3,3.7
				c0,0.4,0,0.7-0.1,1h-4.1c0.1,0.9,0.8,1.3,1.8,1.3c0.7,0,1.2-0.1,1.8-0.3L923.4,164.7z M921.7,160.5c0-0.7-0.2-1.5-1-1.5
				c-0.8,0-1.1,0.9-1.1,1.5H921.7z"/>
		</g>
		<g>
			<path d="M642.8,243.7c-0.5,0.2-1.7,0.5-3.3,0.5c-4.9,0-7.2-3.4-7.2-7.7c0-5.5,3.6-8.2,7.6-8.2c1.6,0,2.6,0.3,3.1,0.6l-0.6,2.9
				c-0.5-0.2-1.3-0.5-2.2-0.5c-2.2,0-4.1,1.5-4.1,5c0,3.2,1.6,4.9,4.1,4.9c0.8,0,1.7-0.2,2.2-0.4L642.8,243.7z"/>
			<path d="M648.1,244h-3.5v-16.1h3.5V244z"/>
			<path d="M652.2,231.5c-1.1,0-1.8-0.8-1.8-1.8c0-1.1,0.8-1.8,1.8-1.8c1.1,0,1.8,0.7,1.8,1.8C654,230.8,653.3,231.5,652.2,231.5z
				 M654,244h-3.5v-11.3h3.5V244z"/>
			<path d="M664,243.8c-0.5,0.2-1.5,0.4-2.6,0.4c-3.4,0-5.5-2.1-5.5-5.7c0-3.4,2.2-6,6-6c0.9,0,1.7,0.2,2.2,0.4l-0.5,2.7
				c-0.4-0.1-0.8-0.3-1.5-0.3c-1.6,0-2.6,1.2-2.6,3.1c0,2,1.1,3.1,2.6,3.1c0.6,0,1.1-0.1,1.6-0.3L664,243.8z"/>
			<path d="M676.1,244H672l-2.1-4.5l-0.7,1v3.5h-3.5v-16.1h3.5v9.6h0.1c0.2-0.6,0.4-1,0.7-1.5l1.8-3.3h4.1l-3.4,4.6L676.1,244z"/>
			<path d="M691.2,244h-3.5v-6.4c0-1.3-0.4-2.2-1.4-2.2c-0.4,0-1.5,0.2-1.5,1.8v6.8h-3.5v-16.1h3.5v6.1h0c0.9-1.1,2-1.5,2.9-1.5
				c2.3,0,3.5,1.7,3.5,4.9V244z"/>
			<path d="M702.3,243.6c-1,0.4-2.4,0.6-3.7,0.6c-3.5,0-5.5-2.1-5.5-5.6c0-3.2,1.9-6,5.2-6c2.7,0,4.6,1.8,4.6,5.6
				c0,0.5,0,1.1-0.1,1.5h-6.4c0.1,1.3,1.3,2,2.7,2c1,0,1.9-0.2,2.7-0.4L702.3,243.6z M699.7,237.2c0-1-0.3-2.3-1.5-2.3
				c-1.2,0-1.7,1.3-1.7,2.3H699.7z"/>
			<path d="M711.3,236c-0.2-0.1-0.5-0.1-0.9-0.1c-0.9,0-1.7,0.4-2,1.4c-0.1,0.3-0.1,0.7-0.1,1.1v5.6h-3.5v-7.6c0-1.5,0-2.6-0.1-3.6
				h3l0.1,1.9h0.1c0.6-1.5,1.7-2.1,2.7-2.1c0.3,0,0.5,0,0.7,0.1V236z"/>
			<path d="M721.6,243.6c-1,0.4-2.4,0.6-3.7,0.6c-3.5,0-5.5-2.1-5.5-5.6c0-3.2,1.9-6,5.2-6c2.7,0,4.6,1.8,4.6,5.6
				c0,0.5,0,1.1-0.1,1.5h-6.4c0.1,1.3,1.3,2,2.7,2c1,0,1.9-0.2,2.7-0.4L721.6,243.6z M718.9,237.2c0-1-0.3-2.3-1.5-2.3
				c-1.2,0-1.7,1.3-1.7,2.3H718.9z"/>
			<path d="M728.7,232.3c0-3.2,2-4.7,4.3-4.7c0.8,0,1.4,0.1,1.9,0.2l-0.2,2.7c-0.3-0.1-0.6-0.1-1-0.1c-1.5,0-1.5,1.4-1.5,2.3h2.1
				v2.5h-2.1v8.7h-3.5v-8.7h-1.5v-2.5h1.5V232.3z"/>
			<path d="M745.6,238.3c0,4.4-2.8,5.9-5.3,5.9c-3.1,0-5.3-2.2-5.3-5.8c0-3.8,2.3-5.9,5.4-5.9C743.7,232.5,745.6,234.9,745.6,238.3z
				 M740.4,235.1c-1.3,0-1.7,1.7-1.7,3.3c0,1.9,0.5,3.3,1.7,3.3c1.1,0,1.7-1.5,1.7-3.3C742.1,236.7,741.6,235.1,740.4,235.1z"/>
			<path d="M754.2,236c-0.2-0.1-0.5-0.1-0.9-0.1c-0.9,0-1.7,0.4-2,1.4c-0.1,0.3-0.1,0.7-0.1,1.1v5.6h-3.5v-7.6c0-1.5,0-2.6-0.1-3.6
				h3l0.1,1.9h0.1c0.6-1.5,1.7-2.1,2.7-2.1c0.3,0,0.5,0,0.7,0.1V236z"/>
			<path d="M769.8,240.6c0,1.2,0,2.5,0.1,3.4h-3.1l-0.2-1.5h-0.1c-0.6,1.1-1.8,1.7-3,1.7c-2.6,0-4.3-2.5-4.3-5.8
				c0-3.8,2.1-5.9,4.4-5.9c1.2,0,2.1,0.5,2.4,1.2h0.1v-5.8h3.5V240.6z M766.3,237.3c0-1.6-0.9-2-1.5-2c-1.3,0-1.9,1.4-1.9,3.1
				c0,1.9,0.8,3,1.8,3c0.7,0,1.5-0.4,1.5-2V237.3z"/>
			<path d="M780.9,243.6c-1,0.4-2.4,0.6-3.7,0.6c-3.5,0-5.5-2.1-5.5-5.6c0-3.2,1.9-6,5.2-6c2.7,0,4.6,1.8,4.6,5.6
				c0,0.5,0,1.1-0.1,1.5H775c0.1,1.3,1.3,2,2.7,2c1,0,1.9-0.2,2.7-0.4L780.9,243.6z M778.3,237.2c0-1-0.3-2.3-1.5-2.3
				c-1.2,0-1.7,1.3-1.7,2.3H778.3z"/>
			<path d="M783.9,230.7l3.5-1v3h2.3v2.5h-2.3v4.2c0,1.3,0.4,1.8,1.3,1.8c0.4,0,0.6,0,0.9-0.1l0,2.7c-0.4,0.1-1.2,0.3-2.2,0.3
				c-3.5,0-3.5-3-3.5-4.2v-4.7h-1.4v-2.5h1.4V230.7z"/>
			<path d="M800.3,241.3c0,1,0,2,0.2,2.7h-3.2l-0.2-1.1H797c-0.7,0.9-1.7,1.3-2.9,1.3c-2,0-3.4-1.6-3.4-3.5c0-3,2.7-4.3,6-4.3
				c0-0.9-0.4-1.5-1.8-1.5c-1.1,0-2.1,0.3-2.8,0.8l-0.6-2.3c0.7-0.4,2.2-1,4.1-1c3.7,0,4.6,2.4,4.6,4.9V241.3z M796.9,238.7
				c-1.5,0-2.7,0.4-2.7,1.7c0,0.9,0.6,1.3,1.2,1.3c0.7,0,1.5-0.5,1.5-1.6V238.7z"/>
			<path d="M804.4,231.5c-1.1,0-1.8-0.8-1.8-1.8c0-1.1,0.8-1.8,1.8-1.8c1.1,0,1.8,0.7,1.8,1.8C806.2,230.8,805.5,231.5,804.4,231.5z
				 M806.2,244h-3.5v-11.3h3.5V244z"/>
			<path d="M812.1,244h-3.5v-16.1h3.5V244z"/>
			<path d="M820.7,235.6c-0.5-0.3-1.3-0.6-2.1-0.6c-0.8,0-1.2,0.3-1.2,0.8c0,0.5,0.3,0.7,1.6,1.3c2,0.8,2.7,2,2.7,3.4
				c0,2.3-1.8,3.7-4.6,3.7c-1.3,0-2.5-0.3-3.2-0.7l0.6-2.5c0.6,0.3,1.7,0.7,2.6,0.7c0.9,0,1.3-0.3,1.3-0.8c0-0.5-0.3-0.8-1.5-1.3
				c-2.2-0.9-2.8-2.2-2.8-3.3c0-2.1,1.7-3.7,4.3-3.7c1.2,0,2.2,0.3,2.8,0.6L820.7,235.6z"/>
		</g>
		<g>
			<path class="st11" d="M460.9,55.5l-3.2-0.3v-1.3h7.2v1.3l-3.1,0.3H460.9z M468.3,53.9h2.8l3,11.1l-1.6,3.2l4.1-14.3h1.5
				l-4.4,14.3h-2.6l-3.2-10.7l1-1l-3.5,11.7h-2.6l-4.4-14.3h4.6l2.8,11.1l-1.6,3.2L468.3,53.9z M469.2,55.5l-2.6-0.3v-1.3h6.8v1.3
				l-2.7,0.3H469.2z M476.9,55.5l-2-0.3v-1.3h4.5v1.3l-1.9,0.3H476.9z"/>
			<path class="st11" d="M479.9,62.8c0-3.3,2.4-5.6,5.8-5.6s5.8,2.3,5.8,5.6s-2,5.8-5.8,5.8C481.9,68.6,479.9,66.1,479.9,62.8z
				 M487.1,62.9c0-3.2-0.4-4.5-1.4-4.5s-1.4,1.3-1.4,4.5c0,3.2,0.4,4.5,1.4,4.5S487.1,66.1,487.1,62.9z"/>
			<path class="st11" d="M497.6,64.8c0,1.1,0.4,1.5,1,1.5c0.8,0,1.8-1,2.3-1.9h1V66h-1.6l0.7-0.7c-1,2.1-2.4,3.4-4.4,3.4
				c-1.9,0-3.3-1.1-3.2-4l0.1-6l0.8,0.8l-1.9-0.4v-1l5-0.8l0.4,0.2l-0.1,3.1V64.8z M500.1,68.5l-0.1-2.6l0.1-7.3l0.8,0.8l-1.8-0.4
				v-0.9l4.9-0.9l0.4,0.2l-0.1,3.1v7.6l-1.8-1.7l2.8,0.6v1.1L500.1,68.5z"/>
			<path class="st11" d="M511.1,52.4l0.4,0.2l-0.1,3.1v7.9c0,1.5,0,3.1,0.1,4.6h-4.3c0-1.5,0.1-3.1,0.1-4.6v-9l-1.2-0.2v-1
				L511.1,52.4z M512.4,67.1v1.1h-6.2v-1.1l2-0.4h2.1L512.4,67.1z"/>
			<path class="st11" d="M519.8,66.4c1,0,1.8-0.9,2.3-1.9l0.3,0.3c-1.2,2.7-2.6,3.8-4.7,3.8c-2.4,0-4.4-1.9-4.4-5.6
				c0-3.7,2.5-5.8,4.9-5.8c2.2,0,3,1.3,4,3.3l-0.2,0.4c-0.7-1-1.2-1.6-2.2-1.6c-1.2,0-2.1,1.2-2.1,3.7
				C517.8,65.2,518.6,66.4,519.8,66.4z M525.7,67.1v1.1l-4.7,0.3l-0.3-1.8V59l0.2-0.2v-4.2l-1.4-0.2v-1l5.1-1l0.4,0.2l-0.1,3.1v12.6
				l-1.9-1.8L525.7,67.1z"/>
			<path class="st11" d="M532.6,58.9l-1.9-0.4v-1h6.7v1l-1.7,0.4H532.6z M530.8,71.6c0.2-1.1,1-1.6,2-1.6c0.6,0,1.4,0.1,2,1.1
				l0.7,1.1l-0.8,0.3l-0.7-0.3c0.9-0.6,1.8-1.7,2.3-3.1l1.3-3.9l2.7-7.7h1.5l-4.6,12c-0.9,2.4-1.8,3.8-4,3.8
				C531.9,73.4,530.9,72.6,530.8,71.6z M536.4,69.7l-5.3-12.2h4.5l2.8,7.7L536.4,69.7z M540.1,58.9l-1.7-0.3v-1h4.1v1l-2,0.3H540.1z
				"/>
			<path class="st11" d="M543.2,62.8c0-3.3,2.4-5.6,5.8-5.6s5.8,2.3,5.8,5.6s-2,5.8-5.8,5.8C545.2,68.6,543.2,66.1,543.2,62.8z
				 M550.4,62.9c0-3.2-0.4-4.5-1.4-4.5s-1.4,1.3-1.4,4.5c0,3.2,0.4,4.5,1.4,4.5S550.4,66.1,550.4,62.9z"/>
			<path class="st11" d="M560.9,64.8c0,1.1,0.4,1.5,1,1.5c0.8,0,1.8-1,2.3-1.9h1V66h-1.6l0.7-0.7c-1,2.1-2.4,3.4-4.4,3.4
				c-1.9,0-3.3-1.1-3.2-4l0.1-6l0.8,0.8l-1.9-0.4v-1l5-0.8l0.4,0.2l-0.1,3.1V64.8z M563.4,68.5l-0.1-2.6l0.1-7.3l0.8,0.8l-1.8-0.4
				v-0.9l4.9-0.9l0.4,0.2l-0.1,3.1v7.6l-1.8-1.7l2.8,0.6v1.1L563.4,68.5z"/>
			<path class="st11" d="M578.9,52.4l0.4,0.2l-0.1,3.1v7.9c0,1.5,0,3.1,0.1,4.6h-4.3c0-1.5,0.1-3.1,0.1-4.6v-9l-1.2-0.2v-1
				L578.9,52.4z M580.2,67.1v1.1H574v-1.1l2-0.4h2.1L580.2,67.1z"/>
			<path class="st11" d="M582.3,68.3c0-1,0.1-3.3,0.1-4.6v-1.1c0-1.2,0-1.9-0.1-2.8l-1.2-0.2v-0.9l5.1-1.5l0.4,0.2l-0.1,3.3v2.9
				c0,1.4,0,3.6,0.1,4.6H582.3z M587.5,67.1v1.1h-6.1v-1.1l1.9-0.4h2.1L587.5,67.1z M582.4,54c0-1.1,0.9-1.9,2-1.9s2,0.8,2,1.9
				c0,1.1-0.9,1.9-2,1.9S582.4,55.1,582.4,54z"/>
			<path class="st11" d="M593.4,52.4l0.4,0.2l-0.1,3.1v7.7c0,1.4,0,4.1,0.1,4.8h-4.3c0-0.7,0.1-3.4,0.1-4.6v-9l-1.2-0.2v-1
				L593.4,52.4z M594.6,67.1v1.1h-6.2v-1.1l1.9-0.4h2.2L594.6,67.1z M600.3,57.5l-8.8,8v-1.4l7-6.6H600.3z M598.3,66.3l3.2,0.8v1.1
				h-5.1l-2.3-5.7l2.9-2.6l3.6,7.9L598.3,66.3z M598,58.9l-2.3-0.3v-1h5.1v1l-2.4,0.3H598z"/>
			<path class="st11" d="M612.6,62c0,0.5,0,0.8-0.1,1.2h-8.8v-1.3h3.7c1.1,0,1.3-0.4,1.3-1.5c0-1.5-0.5-2.1-1.1-2.1
				c-0.7,0-1.3,0.9-1.3,4.1c0,2.6,1.3,3.7,2.7,3.7c1.1,0,1.9-0.4,2.5-1l0.9,0.8c-0.9,1.8-2.6,2.6-4.8,2.6c-3.3,0-5.7-2.1-5.7-5.7
				c0-3.8,3-5.7,5.9-5.7C611,57.2,612.6,59.4,612.6,62z"/>
			<path class="st11" d="M624.4,66.5c0.4,0,0.7-0.2,1.1-0.4l0.5,0.5c-0.6,1.3-1.7,2-3.5,2c-2.2,0-3.4-0.9-3.4-3.3c0-0.9,0-1.5,0-2.4
				v-3.8h-1.3v-1.5l2.6-0.3l-1.4,0.9l1.7-3.9h2.6v4v6.7C623.3,66.1,623.7,66.5,624.4,66.5z M625.3,57.5v1.7h-4.1v-1.7H625.3z"/>
			<path class="st11" d="M626.3,62.8c0-3.3,2.4-5.6,5.8-5.6s5.8,2.3,5.8,5.6s-2,5.8-5.8,5.8C628.3,68.6,626.3,66.1,626.3,62.8z
				 M633.5,62.9c0-3.2-0.4-4.5-1.4-4.5s-1.4,1.3-1.4,4.5c0,3.2,0.4,4.5,1.4,4.5S633.5,66.1,633.5,62.9z"/>
			<path class="st11" d="M643.5,67.2l1.9-0.4l-1,1.6c0-1,0.1-3.3,0.1-4.6v-9.1l-1.2-0.2v-1l5-1l0.4,0.2l-0.1,3.1v3l0.1,0.3v7.7
				l-0.7,1.9l-4.5-0.3V67.2z M651.7,62.8c0-2.5-0.8-3.5-1.9-3.5c-1.3,0-2.2,1.5-2.6,2l-0.2-0.4c1.3-2.5,2.7-3.8,4.8-3.8
				c2.4,0,4.4,1.9,4.4,5.6c0,3.6-2.3,5.8-4.8,5.8c-2.2,0-3.3-1.3-4.2-3.6l0.2-0.4c0.8,1.1,1.3,1.9,2.4,1.9
				C650.9,66.5,651.7,65.3,651.7,62.8z"/>
			<path class="st11" d="M662.2,64.8c0,1.1,0.4,1.5,1,1.5c0.8,0,1.8-1,2.3-1.9h1V66h-1.6l0.7-0.7c-1,2.1-2.4,3.4-4.4,3.4
				c-1.9,0-3.3-1.1-3.2-4l0.1-6l0.8,0.8l-1.9-0.4v-1l5-0.8l0.4,0.2l-0.1,3.1V64.8z M664.8,68.5l-0.1-2.6l0.1-7.3l0.8,0.8l-1.8-0.4
				v-0.9l4.9-0.9l0.4,0.2l-0.1,3.1v7.6l-1.8-1.7l2.8,0.6v1.1L664.8,68.5z"/>
			<path class="st11" d="M672,58.9l-1.9-0.4v-1h6.7v1l-1.7,0.4H672z M670.2,71.6c0.2-1.1,1-1.6,2-1.6c0.6,0,1.4,0.1,2,1.1l0.7,1.1
				l-0.8,0.3l-0.7-0.3c0.9-0.6,1.8-1.7,2.3-3.1l1.3-3.9l2.7-7.7h1.5l-4.6,12c-0.9,2.4-1.8,3.8-4,3.8
				C671.4,73.4,670.3,72.6,670.2,71.6z M675.8,69.7l-5.3-12.2h4.5l2.8,7.7L675.8,69.7z M679.6,58.9l-1.7-0.3v-1h4.1v1l-2,0.3H679.6z
				"/>
			<path class="st11" d="M691.7,62c0.9-0.2,2.5-0.7,3.5-0.9v1c-1.1,0.3-2.2,0.6-2.8,0.9c-0.6,0.3-1.4,1-1.4,2.2
				c0,1.1,0.5,1.6,1.1,1.6c0.3,0,0.6-0.1,1-0.5l1.1-0.8l0.2,0.3l-1,1.1c-1,1.1-1.6,1.8-3.3,1.8c-1.7,0-2.9-1-2.9-2.8
				C687.2,64.1,688.1,62.9,691.7,62z M693,66.5v-5.7c0-1.9-0.3-2.5-1.7-2.5c-0.5,0-1.1,0.1-2.1,0.3l1.8-0.9v1.4
				c0,1.8-0.9,2.5-1.8,2.5c-0.9,0-1.5-0.4-1.7-1.2c0-1.9,1.8-3.2,5.4-3.2c3,0,4.2,1.3,4.2,4.3v5c0,0.2,0.1,0.4,0.4,0.4
				c0.2,0,0.3-0.1,0.6-0.5l0.6,0.4c-0.5,1.3-1.4,1.9-2.9,1.9C694.1,68.6,693.3,67.9,693,66.5z"/>
			<path class="st11" d="M704.7,62.3c0-1.2,0-1.6-0.1-2.5l-1.2-0.2v-0.9l4.8-1.5l0.4,0.2l0.1,1.6l0.1,0.4v6.9l-0.1,0.3v1.3
				c0,1.3,0,2.9,0.1,5.1h-4.2c0-2.1,0.1-3.7,0.1-5.1V62.3z M710,72v1.1h-6.4V72l2-0.4h2.8L710,72z M709.9,59.4c-1.3,0-2.2,1.5-2.6,2
				l-0.2-0.4c1.3-2.5,2.7-3.8,4.8-3.8c2.4,0,4.4,1.9,4.4,5.7c0,3.6-2.3,5.8-4.8,5.8c-2.2,0-3.3-1.3-4.2-3.6l0.2-0.4
				c0.8,1.1,1.3,1.9,2.4,1.9c1.2,0,1.9-1.1,1.9-3.7C711.8,60.3,711.1,59.4,709.9,59.4z"/>
			<path class="st11" d="M718.3,63.6v-1.4c0-1.2,0-1.6-0.1-2.4l-1.2-0.2v-0.9l4.9-1.5l0.4,0.2l0.2,2.7v3.5c0,1.4,0,3.6,0.1,4.6h-4.3
				C718.3,67.3,718.3,65,718.3,63.6z M717.2,67.1l2-0.4h3l2,0.4v1.1h-7V67.1z M720.6,60.8h1.8l-0.2,0.8c0.3-2.9,1.9-4.3,3.2-4.3
				c1.1,0,1.9,0.6,2,2c-0.1,1.2-0.8,1.9-1.7,1.9c-0.7,0-1.3-0.4-1.8-1.2l-0.7-1l0.8,0.5c-0.6,0.5-1.4,1.7-1.6,2.9l-1.9-0.2V60.8z"/>
			<path class="st11" d="M728.9,68.3c0-1,0.1-3.3,0.1-4.6v-1.1c0-1.2,0-1.9-0.1-2.8l-1.2-0.2v-0.9l5.1-1.5l0.4,0.2l-0.1,3.3v2.9
				c0,1.4,0,3.6,0.1,4.6H728.9z M734.1,67.1v1.1H728v-1.1l1.9-0.4h2.1L734.1,67.1z M729,54c0-1.1,0.9-1.9,2-1.9s2,0.8,2,1.9
				c0,1.1-0.9,1.9-2,1.9S729,55.1,729,54z"/>
			<path class="st11" d="M735,62.8c0-3.3,2.4-5.6,5.8-5.6s5.8,2.3,5.8,5.6s-2,5.8-5.8,5.8C737,68.6,735,66.1,735,62.8z M742.2,62.9
				c0-3.2-0.4-4.5-1.4-4.5s-1.4,1.3-1.4,4.5c0,3.2,0.4,4.5,1.4,4.5S742.2,66.1,742.2,62.9z"/>
			<path class="st11" d="M748.6,63.6v-1.4c0-1.2,0-1.6-0.1-2.4l-1.2-0.2v-0.9l4.9-1.5l0.4,0.2l0.2,2.7v3.5c0,1.4,0,3.6,0.1,4.6h-4.3
				C748.6,67.3,748.6,65,748.6,63.6z M747.6,67.1l2-0.4h3l2,0.4v1.1h-7V67.1z M750.9,60.8h1.8l-0.2,0.8c0.3-2.9,1.9-4.3,3.2-4.3
				c1.1,0,1.9,0.6,2,2c-0.1,1.2-0.8,1.9-1.7,1.9c-0.7,0-1.3-0.4-1.8-1.2l-0.7-1l0.8,0.5c-0.6,0.5-1.4,1.7-1.6,2.9l-1.9-0.2V60.8z"/>
			<path class="st11" d="M759.3,68.3c0-1,0.1-3.3,0.1-4.6v-1.1c0-1.2,0-1.9-0.1-2.8l-1.2-0.2v-0.9l5.1-1.5l0.4,0.2l-0.1,3.3v2.9
				c0,1.4,0,3.6,0.1,4.6H759.3z M764.5,67.1v1.1h-6.1v-1.1l1.9-0.4h2.1L764.5,67.1z M759.4,54c0-1.1,0.9-1.9,2-1.9s2,0.8,2,1.9
				c0,1.1-0.9,1.9-2,1.9S759.4,55.1,759.4,54z"/>
			<path class="st11" d="M771.6,66.5c0.4,0,0.7-0.2,1.1-0.4l0.5,0.5c-0.6,1.3-1.7,2-3.5,2c-2.2,0-3.4-0.9-3.4-3.3c0-0.9,0-1.5,0-2.4
				v-3.8h-1.3v-1.5l2.6-0.3l-1.4,0.9l1.7-3.9h2.6v4v6.7C770.6,66.1,771,66.5,771.6,66.5z M772.6,57.5v1.7h-4.1v-1.7H772.6z"/>
			<path class="st11" d="M774.9,58.9l-1.9-0.4v-1h6.7v1l-1.7,0.4H774.9z M773.1,71.6c0.2-1.1,1-1.6,2-1.6c0.6,0,1.4,0.1,2,1.1
				l0.7,1.1l-0.8,0.3l-0.7-0.3c0.9-0.6,1.8-1.7,2.3-3.1l1.3-3.9l2.7-7.7h1.5l-4.6,12c-0.9,2.4-1.8,3.8-4,3.8
				C774.2,73.4,773.2,72.6,773.1,71.6z M778.7,69.7l-5.3-12.2h4.5l2.8,7.7L778.7,69.7z M782.4,58.9l-1.7-0.3v-1h4.1v1l-2,0.3H782.4z
				"/>
			<path class="st11" d="M791.1,59.2h-1.3v-1.5l2.7-0.3l-1.4,0.7c0.2-2.5,1.1-3.7,2-4.5c1.2-1.1,2.6-1.5,3.9-1.5
				c1.3,0,2.6,0.4,2.8,1.7c0,0.9-0.6,1.6-1.7,1.6c-0.8,0-1.5-0.5-2.1-1.9l-0.3-0.7l2.3-0.5l0.1,0.6c-0.2-0.2-0.4-0.3-0.7-0.3
				c-0.8,0-1.3,0.7-1.6,1.1c-0.7,1.1-0.7,2.7-0.6,5v4.9c0,1.5,0,3.1,0.1,4.6h-4.3c0-1.5,0.1-3.1,0.1-4.6V59.2z M796.9,67.1v1.1h-6.8
				v-1.1l2-0.4h2.9L796.9,67.1z M797.3,57.5v1.7h-4.1v-1.7H797.3z"/>
			<path class="st11" d="M798,62.8c0-3.3,2.4-5.6,5.8-5.6s5.8,2.3,5.8,5.6s-2,5.8-5.8,5.8C800.1,68.6,798,66.1,798,62.8z
				 M805.2,62.9c0-3.2-0.4-4.5-1.4-4.5s-1.4,1.3-1.4,4.5c0,3.2,0.4,4.5,1.4,4.5S805.2,66.1,805.2,62.9z"/>
			<path class="st11" d="M811.7,63.6v-1.4c0-1.2,0-1.6-0.1-2.4l-1.2-0.2v-0.9l4.9-1.5l0.4,0.2l0.2,2.7v3.5c0,1.4,0,3.6,0.1,4.6h-4.3
				C811.6,67.3,811.7,65,811.7,63.6z M810.6,67.1l2-0.4h3l2,0.4v1.1h-7V67.1z M813.9,60.8h1.8l-0.2,0.8c0.3-2.9,1.9-4.3,3.2-4.3
				c1.1,0,1.9,0.6,2,2c-0.1,1.2-0.8,1.9-1.7,1.9c-0.7,0-1.3-0.4-1.8-1.2l-0.7-1l0.8,0.5c-0.6,0.5-1.4,1.7-1.6,2.9l-1.9-0.2V60.8z"/>
			<path class="st11" d="M825.8,67.5l0.1-2.8h2l0.5,3.1l-1.3-0.4v-1c1,0.6,1.8,0.9,2.8,0.9c1.1,0,1.8-0.3,1.8-1.1
				c0-0.6-0.3-1-1.8-1.4l-1.3-0.3c-1.7-0.5-2.7-1.7-2.7-3.4c0-2.2,1.7-3.8,4.9-3.8c1.3,0,2.4,0.3,3.7,0.9l-0.2,2.5h-2l-0.7-2.9
				l1.4,0.6v0.9c-0.8-0.5-1.2-0.7-2.2-0.7c-0.8,0-1.5,0.4-1.5,1.1c0,0.5,0.2,0.9,1.8,1.3l1.2,0.3c2,0.5,2.9,1.7,2.9,3.5
				c0,2.6-2,3.9-5.3,3.9C828.3,68.6,827,68.3,825.8,67.5z"/>
			<path class="st11" d="M840.4,62.5c0,2.4,1.1,3.8,2.9,3.8c1,0,1.6-0.4,2.2-1l0.9,0.8c-0.9,1.8-2.6,2.6-4.7,2.6
				c-3,0-5.7-1.8-5.7-5.7c0-3.7,2.8-5.7,6.3-5.7c2.5,0,4.1,1.5,4.2,3.3c-0.3,0.9-0.8,1.3-1.7,1.3c-0.9,0-1.8-0.6-1.9-2.5l-0.1-1.4
				l1.8,0.9c-0.7-0.3-1.2-0.4-1.9-0.4C841.7,58.4,840.4,59.4,840.4,62.5z"/>
			<path class="st11" d="M852,62c0.9-0.2,2.5-0.7,3.5-0.9v1c-1.1,0.3-2.2,0.6-2.8,0.9c-0.6,0.3-1.4,1-1.4,2.2c0,1.1,0.5,1.6,1.1,1.6
				c0.3,0,0.6-0.1,1-0.5l1.1-0.8l0.2,0.3l-1,1.1c-1,1.1-1.6,1.8-3.3,1.8c-1.7,0-2.9-1-2.9-2.8C847.5,64.1,848.5,62.9,852,62z
				 M853.4,66.5v-5.7c0-1.9-0.3-2.5-1.7-2.5c-0.5,0-1.1,0.1-2.1,0.3l1.8-0.9v1.4c0,1.8-0.9,2.5-1.8,2.5c-0.9,0-1.5-0.4-1.7-1.2
				c0-1.9,1.8-3.2,5.4-3.2c3,0,4.2,1.3,4.2,4.3v5c0,0.2,0.1,0.4,0.4,0.4c0.2,0,0.3-0.1,0.6-0.5l0.6,0.4c-0.5,1.3-1.4,1.9-2.9,1.9
				C854.5,68.6,853.6,67.9,853.4,66.5z"/>
			<path class="st11" d="M860.4,63.6v-1.4c0-1.2,0-1.6-0.1-2.4l-1.2-0.2v-0.9l4.9-1.5l0.4,0.2l0.2,2.7v3.5c0,1.4,0,3.6,0.1,4.6h-4.3
				C860.4,67.3,860.4,65,860.4,63.6z M859.3,67.1l2-0.4h3l2,0.4v1.1h-7V67.1z M862.7,60.8h1.8l-0.2,0.8c0.3-2.9,1.9-4.3,3.2-4.3
				c1.1,0,1.9,0.6,2,2c-0.1,1.2-0.8,1.9-1.7,1.9c-0.7,0-1.3-0.4-1.8-1.2l-0.7-1l0.8,0.5c-0.6,0.5-1.4,1.7-1.6,2.9l-1.9-0.2V60.8z"/>
			<path class="st11" d="M874.4,62.5c0,2.4,1.1,3.8,2.9,3.8c1,0,1.6-0.4,2.2-1l0.9,0.8c-0.9,1.8-2.6,2.6-4.7,2.6
				c-3,0-5.7-1.8-5.7-5.7c0-3.7,2.8-5.7,6.3-5.7c2.5,0,4.1,1.5,4.2,3.3c-0.3,0.9-0.8,1.3-1.7,1.3c-0.9,0-1.8-0.6-1.9-2.5l-0.1-1.4
				l1.8,0.9c-0.7-0.3-1.2-0.4-1.9-0.4C875.8,58.4,874.4,59.4,874.4,62.5z"/>
			<path class="st11" d="M882.6,68.3c0-1,0.1-3.3,0.1-4.6v-1.1c0-1.2,0-1.9-0.1-2.8l-1.2-0.2v-0.9l5.1-1.5l0.4,0.2l-0.1,3.3v2.9
				c0,1.4,0,3.6,0.1,4.6H882.6z M887.7,67.1v1.1h-6.1v-1.1l1.9-0.4h2.1L887.7,67.1z M882.6,54c0-1.1,0.9-1.9,2-1.9s2,0.8,2,1.9
				c0,1.1-0.9,1.9-2,1.9S882.6,55.1,882.6,54z"/>
			<path class="st11" d="M894.9,66.5c0.4,0,0.7-0.2,1.1-0.4l0.5,0.5c-0.6,1.3-1.7,2-3.5,2c-2.2,0-3.4-0.9-3.4-3.3c0-0.9,0-1.5,0-2.4
				v-3.8h-1.3v-1.5l2.6-0.3l-1.4,0.9l1.7-3.9h2.6v4v6.7C893.8,66.1,894.3,66.5,894.9,66.5z M895.8,57.5v1.7h-4.1v-1.7H895.8z"/>
			<path class="st11" d="M898.1,58.9l-1.9-0.4v-1h6.7v1l-1.7,0.4H898.1z M896.3,71.6c0.2-1.1,1-1.6,2-1.6c0.6,0,1.4,0.1,2,1.1
				l0.7,1.1l-0.8,0.3l-0.7-0.3c0.9-0.6,1.8-1.7,2.3-3.1l1.3-3.9l2.7-7.7h1.5l-4.6,12c-0.9,2.4-1.8,3.8-4,3.8
				C897.5,73.4,896.4,72.6,896.3,71.6z M901.9,69.7l-5.3-12.2h4.5l2.8,7.7L901.9,69.7z M905.7,58.9l-1.7-0.3v-1h4.1v1l-2,0.3H905.7z
				"/>
			<path class="st11" d="M913.3,67.5l0.1-2.8h2l0.5,3.1l-1.3-0.4v-1c1,0.6,1.8,0.9,2.8,0.9c1.1,0,1.8-0.3,1.8-1.1
				c0-0.6-0.3-1-1.8-1.4l-1.3-0.3c-1.7-0.5-2.7-1.7-2.7-3.4c0-2.2,1.7-3.8,4.9-3.8c1.3,0,2.4,0.3,3.7,0.9l-0.2,2.5h-2l-0.7-2.9
				l1.4,0.6v0.9c-0.8-0.5-1.2-0.7-2.2-0.7c-0.8,0-1.5,0.4-1.5,1.1c0,0.5,0.2,0.9,1.8,1.3l1.2,0.3c2,0.5,2.9,1.7,2.9,3.5
				c0,2.6-2,3.9-5.3,3.9C915.8,68.6,914.5,68.3,913.3,67.5z"/>
			<path class="st11" d="M924.6,62.3c0-1.2,0-1.6-0.1-2.5l-1.2-0.2v-0.9l4.8-1.5l0.4,0.2l0.1,1.6l0.1,0.4v6.9l-0.1,0.3v1.3
				c0,1.3,0,2.9,0.1,5.1h-4.2c0-2.1,0.1-3.7,0.1-5.1V62.3z M929.9,72v1.1h-6.4V72l2-0.4h2.8L929.9,72z M929.8,59.4
				c-1.3,0-2.2,1.5-2.6,2L927,61c1.3-2.5,2.7-3.8,4.8-3.8c2.4,0,4.4,1.9,4.4,5.7c0,3.6-2.3,5.8-4.8,5.8c-2.2,0-3.3-1.3-4.2-3.6
				l0.2-0.4c0.8,1.1,1.3,1.9,2.4,1.9c1.2,0,1.9-1.1,1.9-3.7C931.7,60.3,931,59.4,929.8,59.4z"/>
			<path class="st11" d="M941.7,62c0.9-0.2,2.5-0.7,3.5-0.9v1c-1.1,0.3-2.2,0.6-2.8,0.9c-0.6,0.3-1.4,1-1.4,2.2
				c0,1.1,0.5,1.6,1.1,1.6c0.3,0,0.6-0.1,1-0.5l1.1-0.8l0.2,0.3l-1,1.1c-1,1.1-1.6,1.8-3.3,1.8c-1.7,0-2.9-1-2.9-2.8
				C937.2,64.1,938.2,62.9,941.7,62z M943.1,66.5v-5.7c0-1.9-0.3-2.5-1.7-2.5c-0.5,0-1.1,0.1-2.1,0.3l1.8-0.9v1.4
				c0,1.8-0.9,2.5-1.8,2.5c-0.9,0-1.5-0.4-1.7-1.2c0-1.9,1.8-3.2,5.4-3.2c3,0,4.2,1.3,4.2,4.3v5c0,0.2,0.1,0.4,0.4,0.4
				c0.2,0,0.3-0.1,0.6-0.5l0.6,0.4c-0.5,1.3-1.4,1.9-2.9,1.9C944.2,68.6,943.3,67.9,943.1,66.5z"/>
			<path class="st11" d="M953.4,62.5c0,2.4,1.1,3.8,2.9,3.8c1,0,1.6-0.4,2.2-1l0.9,0.8c-0.9,1.8-2.6,2.6-4.7,2.6
				c-3,0-5.7-1.8-5.7-5.7c0-3.7,2.8-5.7,6.3-5.7c2.5,0,4.1,1.5,4.2,3.3c-0.3,0.9-0.8,1.3-1.7,1.3c-0.9,0-1.8-0.6-1.9-2.5l-0.1-1.4
				l1.8,0.9c-0.7-0.3-1.2-0.4-1.9-0.4C954.8,58.4,953.4,59.4,953.4,62.5z"/>
			<path class="st11" d="M971.2,62c0,0.5,0,0.8-0.1,1.2h-8.8v-1.3h3.7c1.1,0,1.3-0.4,1.3-1.5c0-1.5-0.5-2.1-1.1-2.1
				c-0.7,0-1.3,0.9-1.3,4.1c0,2.6,1.3,3.7,2.7,3.7c1.1,0,1.9-0.4,2.5-1L971,66c-0.9,1.8-2.6,2.6-4.8,2.6c-3.3,0-5.7-2.1-5.7-5.7
				c0-3.8,3-5.7,5.9-5.7C969.6,57.2,971.2,59.4,971.2,62z"/>
			<path class="st11" d="M980.4,61.9l-1.4,0.4c-0.8,0.2-1.1,0.3-1.2,1.1l-0.1,0.5h-2l-0.3-1c-0.4-1.1-0.5-1.9-0.5-2.7
				c0-1.2,0.8-1.7,2.4-2l2.5-0.5c1-0.2,1.3-0.4,1.3-1.1c0-0.5-0.2-0.9-0.9-2l1.6,1.8l-5.2-0.7c-2.3-0.3-3-1.2-3-2.4
				c0-1.3,0.8-2,2.5-2.5c4,0.9,7.6,4.1,7.6,7C983.9,60,982.9,61.2,980.4,61.9z M973.9,68.3c0-1.7,1.4-3.1,3.2-3.1
				c1.8,0,3.2,1.4,3.2,3.1c0,1.7-1.4,3.1-3.2,3.1C975.3,71.4,973.9,70.1,973.9,68.3z"/>
		</g>
		<g>
			
				<image style="overflow:visible;opacity:0.75;" width="1205" height="305" xlink:href="AFDC4B19.png"  transform="matrix(0.24 0 0 0.24 93.707 80.987)">
			</image>
			<g>
				<g>
					<path class="st10" d="M144.6,86.9l2.5-1.8l-0.7,5.7h-2.8l0.1-5.7h18.1l0,5.7H159l-0.7-5.7l2.5,1.8H144.6z M153.4,102.5l4.7,0.5
						v1.8h-10.8v-1.8l4.5-0.5H153.4z M149.7,94.4c0-3.1,0-6.2-0.1-9.3h6.1c-0.1,3-0.1,6.2-0.1,9.3v0.9c0,3.1,0,6.3,0.1,9.4h-6.1
						c0.1-3,0.1-6.2,0.1-9.3V94.4z"/>
					<path class="st10" d="M164.5,104.7c0.1-1.4,0.1-4.5,0.1-6.3v-1.4c0-1.7,0-2.6-0.1-3.8l-1.6-0.3v-1.2l7-2.1l0.5,0.3l-0.1,4.5v4
						c0,1.9,0,5,0.1,6.3H164.5z M171.6,103.2v1.5h-8.4v-1.5l2.6-0.6h2.9L171.6,103.2z M164.6,85.2c0-1.5,1.2-2.6,2.8-2.6
						s2.8,1.1,2.8,2.6c0,1.5-1.2,2.6-2.8,2.6S164.6,86.7,164.6,85.2z"/>
					<path class="st10" d="M174.2,104.7c0.1-1.4,0.1-4.5,0.1-6.3v-1.9c0-1.7,0-2.2-0.1-3.4l-1.6-0.3v-1.2l6.6-2.1l0.5,0.3l0.2,3.3
						v5.2c0,1.9,0,5,0.1,6.3H174.2z M181.1,103.2v1.5h-8.3v-1.5l2.6-0.6h2.9L181.1,103.2z M188.9,94.6v3.8c0,1.9,0,5,0.1,6.3h-5.8
						c0.1-1.4,0.1-4.4,0.1-6.3v-3c0-1.8-0.3-2.6-1.4-2.6c-1.2,0-2.7,1.3-3.3,2.3h-1.3v-2.2h2l-0.8,1c2-3,3.5-4.3,5.8-4.3
						C187.3,89.6,188.9,91.3,188.9,94.6z M187.4,102.6l2.7,0.6v1.5h-8.1v-1.5l2.4-0.6H187.4z M197.7,94.9v3.5c0,1.9,0,5,0.1,6.3H192
						c0.1-1.4,0.1-4.4,0.1-6.3v-3c0-2-0.4-2.6-1.4-2.6c-1.3,0-2.5,1-3.4,2.3h-1.2v-2.4h2.3l-1.2,1.2c2.3-3.5,3.8-4.3,5.8-4.3
						C196.4,89.6,197.7,91.4,197.7,94.9z M196.2,102.6l2.8,0.6v1.5h-8.1v-1.5l2.2-0.6H196.2z"/>
					<path class="st10" d="M214.7,96.2c0,0.6,0,1.1-0.2,1.6h-12V96h5.1c1.4,0,1.8-0.5,1.8-2c0-2.1-0.8-2.8-1.5-2.8
						c-1,0-1.7,1.3-1.7,5.6c0,3.6,1.8,5.1,3.7,5.1c1.5,0,2.6-0.6,3.4-1.4l1.2,1.1c-1.3,2.4-3.5,3.5-6.5,3.5c-4.5,0-7.8-2.9-7.8-7.9
						c0-5.2,4.2-7.8,8.1-7.8C212.6,89.6,214.7,92.5,214.7,96.2z"/>
					<path class="st10" d="M230.8,102.4c0.5,0,1-0.2,1.5-0.6l0.8,0.7c-0.8,1.7-2.3,2.7-4.8,2.7c-3,0-4.7-1.3-4.7-4.5
						c0-1.2,0-2,0-3.2v-5.2h-1.7v-2l3.5-0.5l-1.9,1.3l2.3-5.4h3.6v5.5v9.1C229.3,101.7,229.9,102.4,230.8,102.4z M232.1,90.1v2.3
						h-5.6v-2.3H232.1z"/>
					<path class="st10" d="M233.4,97.3c0-4.5,3.3-7.7,7.9-7.7c4.6,0,7.9,3.1,7.9,7.7s-2.8,7.9-7.9,7.9
						C236.1,105.2,233.4,101.8,233.4,97.3z M243.2,97.4c0-4.4-0.6-6.1-1.9-6.1s-1.9,1.8-1.9,6.1c0,4.4,0.6,6.2,1.9,6.2
						S243.2,101.8,243.2,97.4z"/>
					<path class="st10" d="M257,103.2l2.6-0.6l-1.4,2.1c0.1-1.4,0.1-4.5,0.1-6.3V85.9l-1.6-0.2v-1.4l6.9-1.4l0.5,0.3l-0.1,4.2v4.1
						l0.1,0.4v10.6l-0.9,2.6l-6.2-0.5V103.2z M268.1,97.3c0-3.4-1.1-4.7-2.6-4.7c-1.8,0-3.1,2.1-3.6,2.7l-0.3-0.5
						c1.7-3.5,3.7-5.2,6.6-5.2c3.3,0,6,2.6,6,7.7c0,4.9-3.2,7.9-6.5,7.9c-3,0-4.5-1.8-5.7-4.9l0.3-0.6c1.1,1.5,1.8,2.6,3.3,2.6
						C267.1,102.3,268.1,100.7,268.1,97.3z"/>
					<path class="st10" d="M282.6,99.9c0,1.6,0.5,2,1.3,2c1.1,0,2.5-1.4,3.1-2.6h1.4v2.2h-2.1l0.9-1c-1.3,2.8-3.3,4.6-6,4.6
						c-2.6,0-4.5-1.4-4.4-5.4l0.1-8.2l1.1,1.1l-2.6-0.6v-1.4l6.8-1.1l0.5,0.3l-0.2,4.3V99.9z M286,105.1l-0.2-3.5l0.1-9.9l1.1,1.1
						l-2.5-0.6v-1.2l6.6-1.2l0.5,0.3l-0.1,4.3v10.4l-2.5-2.3l3.9,0.8v1.5L286,105.1z"/>
					<path class="st10" d="M295.9,91.9l-2.6-0.5v-1.4h9.1v1.4l-2.3,0.5H295.9z M293.4,109.3c0.3-1.5,1.4-2.2,2.7-2.2
						c0.8,0,1.9,0.2,2.7,1.5l0.9,1.5l-1.1,0.5l-1-0.5c1.2-0.8,2.4-2.3,3.1-4.3l1.8-5.3l3.7-10.5h2.1l-6.3,16.4
						c-1.3,3.2-2.5,5.2-5.4,5.2C295,111.7,293.6,110.6,293.4,109.3z M301.1,106.7l-7.2-16.7h6.1l3.8,10.5L301.1,106.7z M306.3,91.9
						l-2.3-0.5v-1.4h5.6v1.4l-2.8,0.5H306.3z"/>
					<path class="st10" d="M95.9,124.5l-0.6-1.4c1.5-0.8,3.6-3,4-5.3l-0.3,3l-2.4-1.6c-1-0.7-1.3-1.6-1.3-2.5c0-1.6,1.4-2.8,2.8-2.8
						c1.1,0,1.9,0.6,2.4,1c0.6,0.9,0.8,2,0.8,3C101.3,120.9,99.2,123.3,95.9,124.5z M103.3,124.5l-0.6-1.4c1.5-0.8,3.6-3,4-5.3
						l-0.3,3l-2.4-1.6c-1-0.7-1.3-1.6-1.3-2.5c0-1.6,1.4-2.8,2.8-2.8c1.1,0,1.9,0.6,2.4,1c0.6,0.9,0.8,2,0.8,3
						C108.7,120.9,106.5,123.3,103.3,124.5z"/>
					<path class="st10" d="M115.4,129.4c0-1.9,0-2.4-0.1-3.8l-1.8-0.3V124l7.4-2.3l0.6,0.3l0.2,2.5l0.2,0.7v10.6l-0.1,0.5v2.1
						c0,2.1,0,4.5,0.1,7.8h-6.5c0.1-3.2,0.1-5.7,0.1-7.8V129.4z M123.6,144.4v1.8h-9.8v-1.8l3-0.7h4.3L123.6,144.4z M123.4,125
						c-2,0-3.4,2.4-4,3l-0.3-0.5c1.9-3.9,4.2-5.8,7.4-5.8c3.7,0,6.7,2.9,6.7,8.7c0,5.5-3.6,8.8-7.3,8.8c-3.4,0-5.1-2-6.4-5.5
						l0.3-0.6c1.2,1.7,2,2.9,3.7,2.9c1.8,0,3-1.8,3-5.6C126.4,126.5,125.2,125,123.4,125z"/>
					<path class="st10" d="M142.4,114.3l0.6,0.4l-0.1,4.7v12.2c0,2.4,0,4.7,0.1,7.1h-6.6c0.1-2.4,0.1-4.7,0.1-7.1v-13.9l-1.8-0.3
						v-1.5L142.4,114.3z M144.4,136.9v1.7h-9.6v-1.7l3-0.7h3.3L144.4,136.9z"/>
					<path class="st10" d="M153,129c1.4-0.4,3.9-1,5.4-1.4v1.5c-1.6,0.4-3.4,0.9-4.4,1.4c-0.9,0.4-2.2,1.5-2.2,3.3
						c0,1.7,0.8,2.5,1.8,2.5c0.4,0,0.9-0.2,1.6-0.7l1.6-1.2l0.3,0.4l-1.6,1.8c-1.5,1.6-2.5,2.7-5.1,2.7c-2.7,0-4.4-1.6-4.4-4.4
						C146.1,132.2,147.5,130.5,153,129z M155,136v-8.7c0-2.9-0.4-3.8-2.6-3.8c-0.8,0-1.7,0.1-3.2,0.4l2.7-1.4v2.1
						c0,2.7-1.3,3.8-2.8,3.8c-1.3,0-2.2-0.6-2.6-1.8c0-2.9,2.8-4.9,8.2-4.9c4.7,0,6.4,1.9,6.4,6.5v7.7c0,0.3,0.2,0.6,0.6,0.6
						c0.3,0,0.5-0.1,0.9-0.7l1,0.5c-0.8,2.1-2.1,2.9-4.5,2.9C156.7,139.2,155.4,138,155,136z"/>
					<path class="st10" d="M173.8,136c0.6,0,1.1-0.2,1.7-0.7l0.8,0.8c-0.9,2-2.6,3.1-5.3,3.1c-3.3,0-5.3-1.4-5.3-5
						c0-1.3,0-2.3,0-3.6v-5.8h-1.9v-2.2l3.9-0.5l-2.2,1.5l2.6-6h4v6.1v10.2C172.2,135.3,172.9,136,173.8,136z M175.3,122.2v2.5H169
						v-2.5H175.3z"/>
					<path class="st10" d="M178.4,138.6c0.1-1.5,0.1-5,0.1-7.1v-1.6c0-1.9,0-2.9-0.1-4.3l-1.8-0.3V124l7.8-2.3l0.6,0.4l-0.1,5v4.5
						c0,2.1,0,5.6,0.1,7.1H178.4z M186.4,136.9v1.7h-9.4v-1.7l2.9-0.7h3.3L186.4,136.9z M178.5,116.7c0-1.7,1.4-2.9,3.1-2.9
						s3.1,1.2,3.1,2.9c0,1.7-1.4,2.9-3.1,2.9S178.5,118.4,178.5,116.7z"/>
					<path class="st10" d="M189.2,138.6c0.1-1.5,0.1-5,0.1-7.1v-2.1c0-1.9,0-2.4-0.1-3.8l-1.8-0.3V124l7.5-2.3l0.6,0.4l0.3,3.7v5.8
						c0,2.1,0,5.6,0.1,7.1H189.2z M197,136.9v1.7h-9.3v-1.7l2.9-0.7h3.3L197,136.9z M205.8,127.3v4.3c0,2.2,0,5.6,0.1,7.1h-6.6
						c0.1-1.5,0.1-4.9,0.1-7.1v-3.8c0-1.8-0.4-2.5-1.5-2.5c-1,0-2.7,1-3.8,2.5h-1.3v-2.4h2.5l-1.2,1.1c2.7-3.9,4.3-4.8,6.7-4.8
						C203.7,121.6,205.8,123.6,205.8,127.3z M204,136.2l3.3,0.7v1.7h-9.3v-1.7l2.8-0.7H204z"/>
					<path class="st10" d="M216.5,133.3c0,1.8,0.6,2.3,1.5,2.3c1.2,0,2.8-1.6,3.5-2.9h1.5v2.4h-2.4l1-1.1c-1.5,3.2-3.7,5.2-6.7,5.2
						c-3,0-5-1.6-4.9-6.1l0.1-9.1l1.2,1.2l-3-0.7V123l7.7-1.2l0.6,0.4l-0.2,4.8V133.3z M220.4,139l-0.2-4l0.1-11.1l1.2,1.3l-2.8-0.7
						v-1.4l7.5-1.4l0.6,0.4l-0.1,4.8v11.6l-2.8-2.6l4.4,0.9v1.7L220.4,139z"/>
					<path class="st10" d="M230.9,138.6c0.1-1.5,0.1-5,0.1-7.1v-2.1c0-1.9,0-2.4-0.1-3.8l-1.8-0.3V124l7.5-2.3l0.6,0.4l0.3,3.7v5.8
						c0,2.1,0,5.6,0.1,7.1H230.9z M238.8,136.9v1.7h-9.3v-1.7l2.9-0.7h3.3L238.8,136.9z M247.4,127.3v4.3c0,2.2,0,5.6,0.1,7.1h-6.5
						c0.1-1.5,0.1-4.9,0.1-7.1v-3.4c0-2.1-0.3-2.9-1.6-2.9c-1.4,0-3,1.4-3.7,2.5h-1.5v-2.4h2.3l-0.8,1.1c2.2-3.4,3.9-4.8,6.5-4.8
						C245.7,121.6,247.4,123.6,247.4,127.3z M245.7,136.2l3,0.7v1.7h-9.1v-1.7l2.7-0.7H245.7z M257.4,127.6v3.9c0,2.2,0,5.6,0.1,7.1
						H251c0.1-1.5,0.1-4.9,0.1-7.1v-3.4c0-2.3-0.4-2.9-1.6-2.9c-1.4,0-2.8,1.1-3.8,2.5h-1.4v-2.7h2.6l-1.3,1.3
						c2.6-3.9,4.3-4.8,6.5-4.8C255.9,121.6,257.4,123.7,257.4,127.6z M255.7,136.2l3.1,0.7v1.7h-9v-1.7l2.5-0.7H255.7z"/>
					<path class="st10" d="M267.1,137.5l0.2-4.3h3.1l0.7,4.7l-2-0.6v-1.5c1.6,0.9,2.7,1.4,4.3,1.4c1.7,0,2.7-0.5,2.7-1.8
						c0-0.9-0.5-1.6-2.7-2.2l-1.9-0.5c-2.7-0.7-4.1-2.6-4.1-5.2c0-3.4,2.7-5.8,7.5-5.8c2.1,0,3.7,0.5,5.6,1.4l-0.3,3.8H277l-1.1-4.5
						l2.1,0.9v1.4c-1.2-0.7-1.8-1-3.4-1c-1.3,0-2.3,0.6-2.3,1.7c0,0.7,0.4,1.4,2.7,2l1.9,0.5c3.1,0.8,4.4,2.7,4.4,5.3
						c0,4-3.1,5.9-8.1,5.9C271,139.2,268.9,138.6,267.1,137.5z"/>
					<path class="st10" d="M284.4,129.4c0-1.9,0-2.4-0.1-3.8l-1.8-0.3V124l7.4-2.3l0.6,0.3l0.2,2.5l0.2,0.7v10.6l-0.1,0.5v2.1
						c0,2.1,0,4.5,0.1,7.8h-6.5c0.1-3.2,0.1-5.7,0.1-7.8V129.4z M292.6,144.4v1.8h-9.8v-1.8l3-0.7h4.3L292.6,144.4z M292.4,125
						c-2,0-3.4,2.4-4,3l-0.3-0.5c1.9-3.9,4.2-5.8,7.4-5.8c3.7,0,6.7,2.9,6.7,8.7c0,5.5-3.6,8.8-7.3,8.8c-3.4,0-5.1-2-6.4-5.5
						l0.3-0.6c1.2,1.7,2,2.9,3.7,2.9c1.8,0,3-1.8,3-5.6C295.4,126.5,294.2,125,292.4,125z"/>
					<path class="st10" d="M310.7,129c1.4-0.4,3.9-1,5.4-1.4v1.5c-1.6,0.4-3.4,0.9-4.4,1.4c-0.9,0.4-2.2,1.5-2.2,3.3
						c0,1.7,0.8,2.5,1.8,2.5c0.4,0,0.9-0.2,1.6-0.7l1.6-1.2l0.3,0.4l-1.6,1.8c-1.5,1.6-2.5,2.7-5.1,2.7c-2.7,0-4.4-1.6-4.4-4.4
						C303.8,132.2,305.3,130.5,310.7,129z M312.8,136v-8.7c0-2.9-0.4-3.8-2.6-3.8c-0.8,0-1.7,0.1-3.2,0.4l2.7-1.4v2.1
						c0,2.7-1.3,3.8-2.8,3.8c-1.3,0-2.2-0.6-2.6-1.8c0-2.9,2.8-4.9,8.2-4.9c4.7,0,6.4,1.9,6.4,6.5v7.7c0,0.3,0.2,0.6,0.6,0.6
						c0.3,0,0.5-0.1,0.9-0.7l1,0.5c-0.8,2.1-2.1,2.9-4.5,2.9C314.5,139.2,313.2,138,312.8,136z"/>
					<path class="st10" d="M328.7,129.7c0,3.7,1.7,5.8,4.4,5.8c1.5,0,2.5-0.7,3.4-1.6l1.3,1.3c-1.5,2.7-4,3.9-7.2,3.9
						c-4.6,0-8.7-2.8-8.7-8.7c0-5.6,4.2-8.8,9.7-8.8c3.8,0,6.3,2.4,6.4,5.1c-0.4,1.4-1.2,2-2.6,2c-1.4,0-2.8-0.9-2.9-3.8l-0.1-2.2
						l2.8,1.5c-1-0.4-1.8-0.7-2.9-0.7C330.8,123.5,328.7,125.1,328.7,129.7z"/>
					<path class="st10" d="M355.9,129c0,0.7,0,1.2-0.2,1.8h-13.5v-1.9h5.7c1.6,0,2.1-0.5,2.1-2.3c0-2.3-0.8-3.2-1.7-3.2
						c-1.1,0-1.9,1.4-1.9,6.3c0,4.1,2,5.7,4.2,5.7c1.7,0,2.9-0.7,3.8-1.6l1.3,1.3c-1.5,2.7-4,3.9-7.3,3.9c-5.1,0-8.8-3.2-8.8-8.8
						c0-5.8,4.7-8.7,9.1-8.7C353.5,121.6,355.9,124.9,355.9,129z"/>
					<path class="st10" d="M362,124.5l-0.6-1.4c1.5-0.8,3.6-3,4-5.3l-0.3,3l-2.4-1.6c-1-0.7-1.3-1.6-1.3-2.5c0-1.6,1.4-2.8,2.8-2.8
						c1.1,0,1.9,0.6,2.4,1c0.6,0.9,0.8,2,0.8,3C367.4,120.9,365.2,123.3,362,124.5z M369.3,124.5l-0.6-1.4c1.5-0.8,3.6-3,4-5.3
						l-0.3,3l-2.4-1.6c-1-0.7-1.3-1.6-1.3-2.5c0-1.6,1.4-2.8,2.8-2.8c1.1,0,1.9,0.6,2.4,1c0.6,0.9,0.8,2,0.8,3
						C374.8,120.9,372.6,123.3,369.3,124.5z"/>
				</g>
			</g>
		</g>
	</g>
</g>
</svg>
