<?xml version="1.0" encoding="utf-8"?>
<!-- Generator: Adobe Illustrator 28.0.0, SVG Export Plug-In . SVG Version: 6.00 Build 0)  -->
<svg version="1.1" id="Glyph" xmlns="http://www.w3.org/2000/svg" xmlns:xlink="http://www.w3.org/1999/xlink" x="0px" y="0px"
	 viewBox="0 0 64 64" style="enable-background:new 0 0 64 64;" xml:space="preserve">
<style type="text/css">
	.st0{fill:#333333;}
</style>
<path class="st0" d="M30.2,28.3c1.4-0.6,3-0.6,4.4,0l21.7,8.5l0.6-1.5l-21.4-9c-2.2-0.9-4.8-0.9-7,0c-4.9,2.1-16.6,7.1-21.4,9.1
	l0.8,1.7L30.2,28.3z"/>
<path class="st0" d="M41.4,11.4c0-0.6-0.4-1-1-1H24.2c-0.6,0-1,0.4-1,1v2h18.2V11.4z"/>
<path class="st0" d="M36.3,8.4V6c0-1.1-0.9-2-2-2h-3.8c-1.1,0-2,0.9-2,2v2.4C29.7,8.4,36.3,8.4,36.3,8.4z"/>
<path class="st0" d="M36.3,24.5L49.5,30l-1.9-13.8c-0.1-0.5-0.5-0.9-1-0.9H18.4c-0.5,0-0.9,0.4-1,0.9l-1.9,13.5l12.3-5.2
	C30.5,23.4,33.6,23.4,36.3,24.5z M37.8,17.5c0-0.6,0.4-1,1-1h7c0.6,0,1,0.4,1,1v4.1c0,0.6-0.4,1-1,1h-7c-0.6,0-1-0.4-1-1V17.5z
	 M27.9,17.5c0-0.6,0.4-1,1-1h6.7c0.6,0,1,0.4,1,1c0,0,0,0,0,0v4.2c0,0.6-0.4,1-1,1c0,0,0,0,0,0h-6.7c-0.6,0-1-0.4-1-1V17.5z
	 M26.8,21.7c0,0.6-0.4,1-1,1h-6.7c-0.6,0-1-0.4-1-1v-4.2c0-0.6,0.4-1,1-1h6.7c0.6,0,1,0.4,1,1V21.7z"/>
<rect x="39.8" y="18.5" class="st0" width="5" height="2.1"/>
<rect x="29.9" y="18.5" class="st0" width="4.7" height="2.2"/>
<rect x="20.1" y="18.5" class="st0" width="4.7" height="2.2"/>
<path class="st0" d="M56.1,52.2c-2.6,0-3.1-1.5-5.5-1.8l4.9-11.8l-21.6-8.5c-0.9-0.4-2-0.4-2.9,0L8.7,38.9l5.9,13.2
	c-0.7-0.1-1.3-0.4-1.8-0.7c-0.8-0.5-4.7-2.1-4.9-0.1c0,0.6,0.4,1,1,1c1,0,2,0.3,2.9,0.8c2.4,1.4,5.3,1.4,7.7,0
	c0.9-0.6,1.9-0.8,2.9-0.8c1,0,2,0.3,2.9,0.8c2.4,1.4,5.3,1.4,7.7,0c1.8-1.1,4-1.1,5.8,0c2.4,1.4,5.3,1.4,7.7,0
	c0.9-0.6,1.9-0.8,2.9-0.8c2.9,0,3.4,2,6.7,1.9c0.5-0.2,0.8-0.8,0.6-1.3C56.5,52.6,56.3,52.4,56.1,52.2z"/>
<path class="st0" d="M55.3,58c-3.2-0.1-3.2-1.9-6.7-1.9c-3.5,0-3.6,1.8-6.7,1.9c-3.2-0.1-3.2-1.9-6.7-1.9c-3.5,0-3.6,1.8-6.7,1.9
	c-3.2-0.1-3.2-1.9-6.7-1.9c-3.5,0-3.6,1.8-6.7,1.9c-3.2-0.1-3.2-1.9-6.7-1.9c-0.6,0-1,0.5-1,1c0,0.5,0.4,1,1,1
	c3.2,0.1,3.2,1.9,6.7,1.9c3.5,0,3.6-1.8,6.7-1.9c3.2,0.1,3.2,1.9,6.7,1.9c3.5,0,3.6-1.8,6.7-1.9c3.2,0.1,3.2,1.9,6.7,1.9
	c3.5,0,3.6-1.8,6.7-1.9c3.2,0.1,3.2,1.9,6.7,1.9c0.6,0,1-0.4,1-1C56.3,58.4,55.8,58,55.3,58z"/>
</svg>
